<svg preserveAspectRatio="none" width="100%" height="100%" overflow="visible" style="display: block;" viewBox="0 0 110.667 142.411" fill="none" xmlns="http://www.w3.org/2000/svg">
<path id="Vector" d="M55.3333 29.7044V42.0853C55.3333 45.1978 59.0683 46.7194 61.2125 44.5061L80.51 25.2086C81.8933 23.8253 81.8933 21.6811 80.51 20.2978L61.2125 1.00028C59.0683 -1.14389 55.3333 0.377777 55.3333 3.49028V15.8711C24.7617 15.8711 0 40.6328 0 71.2044C0 78.3978 1.38333 85.3144 3.9425 91.6086C5.81 96.2428 11.7583 97.4878 15.2858 93.9603C17.1533 92.0928 17.9142 89.2569 16.8767 86.7669C14.8708 81.9944 13.8333 76.6686 13.8333 71.2044C13.8333 48.3103 32.4392 29.7044 55.3333 29.7044ZM95.3808 48.4486C93.5133 50.3161 92.7525 53.2211 93.79 55.6419C95.7267 60.4836 96.8333 65.7403 96.8333 71.2044C96.8333 94.0986 78.2275 112.704 55.3333 112.704V100.324C55.3333 97.2111 51.5983 95.6894 49.4542 97.9028L30.1567 117.2C28.7733 118.584 28.7733 120.728 30.1567 122.111L49.4542 141.409C51.5983 143.553 55.3333 142.031 55.3333 138.988V126.538C85.905 126.538 110.667 101.776 110.667 71.2044C110.667 64.0111 109.283 57.0944 106.724 50.8003C104.857 46.1661 98.9083 44.9211 95.3808 48.4486Z" fill="var(--fill-0, #BB4C18)"/>
</svg>
