<svg width="74" height="74" viewBox="0 0 74 74" fill="none" xmlns="http://www.w3.org/2000/svg">
<path d="M36.9987 18.4996V24.0187C36.9987 25.4062 38.6637 26.0846 39.6195 25.0979L48.222 16.4954C48.8387 15.8787 48.8387 14.9229 48.222 14.3062L39.6195 5.70372C38.6637 4.74789 36.9987 5.42622 36.9987 6.81372V12.3329C23.3704 12.3329 12.332 23.3712 12.332 36.9996C12.332 40.2062 12.9487 43.2896 14.0895 46.0954C14.922 48.1612 17.5737 48.7162 19.1462 47.1437C19.9787 46.3112 20.3179 45.0471 19.8554 43.9371C18.9612 41.8096 18.4987 39.4354 18.4987 36.9996C18.4987 26.7937 26.7929 18.4996 36.9987 18.4996ZM54.8512 26.8554C54.0187 27.6879 53.6795 28.9829 54.142 30.0621C55.0054 32.2204 55.4987 34.5637 55.4987 36.9996C55.4987 47.2054 47.2045 55.4996 36.9987 55.4996V49.9804C36.9987 48.5929 35.3337 47.9146 34.3779 48.9012L25.7754 57.5037C25.1587 58.1204 25.1587 59.0762 25.7754 59.6929L34.3779 68.2954C35.3337 69.2512 36.9987 68.5729 36.9987 67.2162V61.6662C50.627 61.6662 61.6654 50.6279 61.6654 36.9996C61.6654 33.7929 61.0487 30.7096 59.9079 27.9037C59.0754 25.8379 56.4237 25.2829 54.8512 26.8554Z" fill="#BB4C18"/>
</svg>
