<svg width="16" height="16" viewBox="0 0 16 16" fill="none" xmlns="http://www.w3.org/2000/svg">
<g clip-path="url(#clip0_2570_27573)">
<path d="M11.332 1.3335H4.66536C2.82442 1.3335 1.33203 2.82588 1.33203 4.66683V11.3335C1.33203 13.1744 2.82442 14.6668 4.66536 14.6668H11.332C13.173 14.6668 14.6654 13.1744 14.6654 11.3335V4.66683C14.6654 2.82588 13.173 1.3335 11.332 1.3335Z" stroke="#F5EFE6" stroke-width="1.33333" stroke-linecap="round" stroke-linejoin="round"/>
<path d="M10.6678 7.5802C10.75 8.13503 10.6553 8.70168 10.3969 9.19954C10.1386 9.69741 9.72987 10.1011 9.22886 10.3533C8.72784 10.6055 8.16007 10.6933 7.6063 10.6042C7.05252 10.515 6.54095 10.2536 6.14433 9.85698C5.74772 9.46036 5.48626 8.94878 5.39715 8.39501C5.30804 7.84124 5.39582 7.27346 5.64799 6.77245C5.90017 6.27144 6.3039 5.86269 6.80176 5.60436C7.29963 5.34603 7.86628 5.25126 8.42111 5.33353C8.98706 5.41746 9.51101 5.68118 9.91557 6.08574C10.3201 6.4903 10.5839 7.01425 10.6678 7.5802Z" stroke="#F5EFE6" stroke-width="1.33333" stroke-linecap="round" stroke-linejoin="round"/>
<path d="M11.668 4.3335H11.6746" stroke="#F5EFE6" stroke-width="1.33333" stroke-linecap="round" stroke-linejoin="round"/>
</g>
<defs>
<clipPath id="clip0_2570_27573">
<rect width="16" height="16" fill="white"/>
</clipPath>
</defs>
</svg>
