<svg width="1045" height="282" viewBox="0 0 1045 282" fill="none" xmlns="http://www.w3.org/2000/svg">
<path d="M4.29688 57.5C4.29688 28.2289 28.0258 4.5 57.2969 4.5H987.297C1016.57 4.5 1040.3 28.2289 1040.3 57.5V224.5C1040.3 253.771 1016.57 277.5 987.297 277.5H57.2969C28.0258 277.5 4.29688 253.771 4.29688 224.5V57.5Z" fill="#363636" fill-opacity="0.18"/>
<path d="M14.4246 34.099C10.4301 41.686 8.68454 49.7759 8.74087 57.5C8.97822 96.9635 8.39123 128.58 8.28145 168.998C8.23354 186.673 8.20054 205.271 8.17875 224.5C7.35871 249.646 30.2934 274.274 57.2969 273.654C133.151 273.645 212.114 273.553 279.261 273.565C362.831 273.581 447.747 273.637 530.813 273.682C535.073 273.685 537.615 273.771 539.546 273.772C557.734 273.782 588.231 273.704 606.273 273.715C644.224 273.739 710.259 273.726 745.019 273.807C759.78 273.841 774.92 273.855 780.658 274.06C786.051 274.071 788.995 273.885 790.403 273.875C790.42 273.875 790.436 273.876 790.452 273.876C794.988 273.844 806.442 273.974 808.97 273.966C809.348 273.965 807.021 273.831 813.153 273.871C813.699 273.875 813.195 273.966 818.359 273.967C819.703 273.968 836.973 273.828 841.909 273.819C858.334 273.791 897.559 273.901 917.196 273.899C920.2 273.899 921.929 273.846 925.101 273.845C926.739 273.844 929.195 273.902 929.699 273.902C931.908 273.9 941.56 273.637 938.095 274.156C948.172 274.124 945.203 273.952 945.431 273.84C956.37 273.824 961.642 274.069 964.499 273.809C972.098 273.814 979.698 273.818 987.297 273.823C1013.56 274.484 1037.29 250.796 1036.67 224.5C1036.68 206.058 1036.69 187.616 1036.7 169.173C1036.66 169.157 1036.62 169.141 1036.57 169.125C1036.74 153.27 1036.46 147.831 1036.7 138.779C1036.65 133.198 1036.59 127.616 1036.54 122.035C1036.56 100.514 1036.58 79.0019 1036.59 57.5C1037.25 31.2225 1013.53 7.54083 987.297 8.1918C893.392 8.2033 799.772 8.28834 706.703 8.28792C700.717 8.28792 699.223 8.19792 689.351 8.19729C678.452 8.19666 663.122 8.30126 648.758 8.30001C636.158 8.29906 617.568 8.21392 603.518 8.20059C600.347 8.19773 598.053 8.25473 597.696 8.25442C595.596 8.25219 595.491 8.16195 593.454 8.15939C591.018 8.15654 588.075 8.22338 585.26 8.21926C574.744 8.20437 563.283 8.22742 561.951 8.22585C555.537 8.21731 554.121 8.12905 553.594 8.12808C546.458 8.11731 549.133 8.19697 547.357 8.19235C538.136 8.16793 531.619 7.96908 518.996 8.15994C519.34 8.08615 519.684 8.01236 520.028 7.93857C510.368 7.89705 516.748 8.09312 514.774 8.12863C513.969 8.14178 493.175 8.11784 491.571 8.11435C485.986 8.10167 485.836 8.00361 485.353 8.00229C484.177 7.99912 470.126 8.11041 462.921 8.02481C454.398 7.92337 464.431 7.7239 462.314 7.68644C461.957 7.6801 453.034 7.70055 451.836 7.6381C450.513 7.57092 458.23 7.57235 458.111 7.54417C458.027 7.52483 445.215 7.38635 447.671 7.29314C449.646 7.19966 467.028 7.31952 470.71 7.27557C471.318 7.26829 470.172 7.15291 470.71 7.14868C472.873 7.13315 512.922 7.12968 514.755 7.14868C512.669 7.20123 510.584 7.25378 508.499 7.30633C511.272 7.31164 514.045 7.31695 516.818 7.32226C512.875 7.36437 508.932 7.40648 504.99 7.4486C510.849 7.88129 528.497 7.44265 529.224 7.22668C529.539 7.12681 518.751 6.86986 528.79 6.72022C527.264 6.69459 525.738 6.66896 524.211 6.64332C521.066 6.68543 517.92 6.72755 514.774 6.76966C516.869 6.79621 518.964 6.82276 521.059 6.84931C520.288 6.87934 519.517 6.90937 518.746 6.93939C512.865 6.98755 506.985 7.0357 501.105 7.08386C498.082 7.06167 498.71 6.97301 496.632 6.95587C470.715 6.73998 487.62 7.01471 470.653 6.9751C468.23 6.92749 465.807 6.87989 463.384 6.83228C464.239 7.02917 456.724 6.90555 447.633 6.99048C448.719 6.92676 449.805 6.86304 450.891 6.79932C437.722 6.83325 411.027 6.512 418.231 6.86359C415.214 6.83356 412.197 6.80353 409.179 6.77351C406.631 6.831 404.083 6.88849 401.535 6.94599C398.013 6.93939 394.492 6.9328 390.97 6.92621C390.954 6.89508 390.938 6.86396 390.922 6.83283C393.73 6.83265 396.538 6.83246 399.347 6.83228C397.239 6.73744 395.131 6.64259 393.023 6.54774C390.951 6.56349 388.878 6.57924 386.805 6.59498C395.499 6.68469 384.037 6.83121 381.262 6.95642C373.934 7.0027 369.251 6.84016 366.793 6.83283C365.638 6.82934 352.031 7.1161 357.365 6.80097C350.364 6.83924 343.362 6.87751 336.36 6.91577C333.622 6.89161 330.885 6.86744 328.147 6.84327C334.088 6.69648 316.869 6.51963 329.554 6.45876C339.027 6.4131 341.361 6.55034 345.855 6.54939C349.907 6.54872 352.05 6.45629 356.459 6.45217C386.115 6.42617 410.272 6.44313 438.436 6.48402C444.001 6.49224 449.062 6.44692 452.8 6.45326C457.019 6.46057 451.732 6.57651 457.109 6.54829C462.754 6.51847 463.975 6.42386 465.466 6.42195C466.394 6.42088 469.334 6.506 472.041 6.506C483.162 6.50598 499.457 6.42368 501.037 6.42415C502.822 6.4251 534.273 6.50191 535.779 6.51588C536.577 6.52349 534.921 6.83781 541.852 6.5027C544.015 6.49648 546.177 6.49025 548.34 6.48402C547.99 6.54683 547.639 6.60963 547.289 6.67243C560.1 6.43435 555.694 6.56755 568.044 6.54884C597.615 6.50383 641.238 6.55675 673.58 6.53456C680.803 6.52948 683.555 6.45428 692.099 6.44887C700.036 6.44411 720.764 6.6685 716.256 6.35769C733.919 6.62682 736.758 6.16272 745.6 6.45217C746.67 6.41005 747.74 6.36794 748.81 6.32583C758.407 6.50653 761.37 6.34771 771.849 6.32583C776.364 6.31632 771.159 6.50852 780.274 6.29452C782.016 6.31045 783.757 6.32638 785.499 6.34231C785.094 6.38881 784.689 6.43532 784.284 6.48183C794.407 6.44378 795.06 6.46802 793.905 6.29397C798.792 6.32564 803.68 6.35732 808.567 6.389C809.174 6.33187 809.782 6.27474 810.389 6.21761C808.047 6.10865 697.076 6.27297 681.62 6.32528C663.496 6.19597 627.086 6.35763 612.445 6.32693C606.585 6.31456 603.996 6.18536 595.469 6.16983C586.945 6.1543 576.217 6.27165 571.678 6.27584C556.556 6.29042 484.913 6.26465 533.639 6.10391C532.238 6.04092 530.837 5.97794 529.436 5.91495C510.074 6.12988 517.085 5.99757 501.018 5.97537C494.255 5.9659 478.17 6.10655 479.068 5.82047C491.628 5.76721 504.971 5.85865 515.892 5.85453C516.975 5.85408 529.906 5.72346 536.56 5.75895C542.563 5.79135 538.43 6.06407 551.492 5.75785C561.193 6.05698 566.802 5.7856 569.364 5.75675C573.793 5.70673 574.278 5.85436 578.705 5.87156C583.528 5.89055 586.848 5.79255 587.506 5.79191C594.12 5.78969 628.564 5.77633 630.143 5.83585C628.758 5.86203 627.374 5.88822 625.989 5.9144C634.934 5.95654 633.064 5.80558 635.416 5.78751C637.168 5.78806 638.919 5.78861 640.67 5.78916C639.976 5.82047 639.282 5.85178 638.588 5.88309C649.152 5.87643 641.069 5.76763 656.065 5.77048C665.587 5.7724 675.422 5.89193 676.347 5.88309C676.62 5.88056 673.622 5.79997 677.504 5.78916C683.929 5.77141 695.039 5.77346 696.282 5.88309C699.429 5.86757 699.161 5.76029 699.579 5.75785C701.406 5.74739 732.844 5.71091 738.476 5.70457C754.081 5.68713 771.455 5.71001 788.362 5.69193C790.1 5.69013 788.991 5.75897 790.733 5.75675C793.53 5.75323 807.888 5.64518 810.032 5.63755C815.385 5.61886 829.468 5.66171 831.683 5.63041C831.998 5.62598 827.364 5.53292 832.782 5.50407C838.798 5.47216 835.559 5.5973 835.886 5.59855C848.13 5.64135 855.859 5.5544 864.218 5.53758C866.926 5.53219 871.925 5.62638 875.747 5.59855C876.187 5.59539 875.315 5.50836 875.747 5.50407C881.523 5.45842 886.927 5.61995 889.426 5.63041C895.541 5.65599 892.211 5.53678 892.53 5.53593C896.604 5.53213 902.086 5.57513 908.281 5.56944C935.742 5.54422 958.18 5.53688 987.297 5.54459C987.462 5.54463 987.627 5.54545 987.793 5.54704C991.42 5.53869 995.652 6.27594 996.195 6.3899C997.862 6.72907 997.445 6.37708 1002.21 7.70258C1012.17 10.7258 1020.57 16.3271 1027.21 24.2213C1028.53 25.824 1028.98 26.5961 1029.89 27.8879C1031.44 30.0339 1034.5 35.0661 1036.23 40.0182C1038.04 44.9358 1038.64 49.5401 1038.52 49.7015C1039.01 52.4912 1039.21 55.0693 1039.22 57.5C1039.26 64.2061 1039.14 69.7215 1039.14 76.0431C1039.15 96.5417 1039.2 128.639 1039.17 149.074C1039.16 153.377 1039.08 155.395 1039.08 157.789C1039.07 162.081 1039.12 186.62 1039.1 187.904C1039.08 190.424 1038.74 188.913 1039.04 201.872C1039.06 209.469 1038.92 208.572 1038.91 210.143C1038.89 215.34 1038.93 220.478 1038.97 224.5C1038.99 229.835 1038.3 233.108 1038.36 231.851C1036.31 245.672 1030.55 253.4 1026.86 257.553C1027 257.536 1022.98 262.87 1016.38 267.264C1022.3 261.983 1023.45 263.949 1033.38 247.283C1033.52 247.009 1033.34 247.574 1033.48 247.3C1034.76 244.838 1036.85 239.405 1037.73 234.745C1038.57 230.09 1038.17 232.687 1038.44 230.812C1038.63 229.079 1038.56 229.14 1038.68 226.632C1038.71 225.918 1038.73 225.206 1038.73 224.5C1038.72 217.027 1038.7 210.479 1038.7 206.132C1038.7 203.13 1038.78 199.768 1038.78 197.437C1038.77 188.427 1038.71 169.333 1038.72 157.866C1038.72 155.477 1038.81 156.48 1038.82 151.253C1038.82 150.643 1038.73 148.416 1038.71 143.84C1038.69 139.262 1038.74 135.713 1038.73 132.773C1038.72 130.316 1038.64 131.343 1038.63 126.305C1038.63 122.105 1038.69 74.5294 1038.7 71.9461C1038.72 68.23 1038.83 66.4636 1038.82 64.1957C1038.82 63.7964 1038.71 63.1209 1038.7 61.7376C1038.69 60.4147 1038.68 58.9988 1038.68 57.5C1038.83 47.4686 1034.96 33.0797 1024.81 22.4278C1014.95 11.5621 999.709 5.85695 987.297 6.08724C982.977 6.08284 978.979 6.08016 975.432 6.08029C920.953 6.08187 870.692 6.14689 815.729 6.17257C814.749 6.1918 813.769 6.21102 812.789 6.23025C818.345 6.23098 823.901 6.23171 829.456 6.23245C829.492 6.28445 829.527 6.33645 829.562 6.38845C837.074 6.39668 836.078 6.2737 835.867 6.19949C838.646 6.23098 841.426 6.26247 844.205 6.29397C846.603 6.11275 865.14 6.23328 874.696 6.233C880.912 6.233 888.308 6.16391 891.585 6.16928C898.51 6.18036 898.329 6.29218 898.873 6.29397C899.797 6.2965 909.464 6.19788 916.437 6.20168C926.745 6.20712 927.86 6.37881 941.972 6.233C956.271 6.30343 971.791 6.29014 987.297 6.27428C991.268 6.2691 995.235 6.72163 999.072 7.62175C995.566 6.69347 1012.1 11.0443 1017.88 16.4039C1030 25.2641 1038.65 40.8451 1038.49 57.5C1038.46 93.3204 1038.42 131.015 1038.38 163.958C1038.37 170.215 1038.28 174.942 1038.28 178.428C1038.28 180.318 1038.39 181.143 1038.38 183.768C1038.37 184.229 1038.27 184.55 1038.25 189.436C1038.23 197.245 1038.29 212.53 1038.29 224.5C1038.3 230.945 1036.97 236.273 1036.16 238.768C1030.29 259.957 1009.34 275.772 987.297 275.443C968.454 275.457 949.612 275.471 930.769 275.485C929.725 275.443 928.68 275.4 927.636 275.358C919.738 275.574 888.514 275.447 873.287 275.457C846.488 275.475 812.294 275.542 788.813 275.549C783.71 275.551 779.53 275.49 774.7 275.491C772.622 275.492 770.038 275.571 767.875 275.571C743.596 275.577 710.723 275.496 686.255 275.498C630.703 275.502 578.385 275.49 522.098 275.493C366.534 275.504 211.704 275.584 57.2969 275.586C30.0719 276.25 5.54616 251.692 6.21756 224.5C6.21874 218.476 6.22007 212.452 6.22158 206.429C6.22221 203.909 6.31322 204.035 6.31386 202.082C6.3183 190.552 6.24328 164.803 6.24739 151.781C6.25056 141.406 6.38972 124.938 6.24959 121.367C6.05781 154.696 6.05249 189.727 6.0094 224.5C6.00436 228.068 6.36606 231.633 7.09348 235.116C7.65456 237.697 7.71197 238.022 7.7865 238.34C9.63394 244.061 8.18255 240.581 11.9188 248.451C12.5401 249.752 16.2628 256.321 21.115 261.012C25.8448 265.81 31.1061 268.746 29.7832 267.806C32.2774 269.621 43.9241 276.153 57.2969 275.918C71.1359 275.942 85.3864 275.947 89.9642 275.928C92.7155 275.917 90.7677 275.836 91.3138 275.832C93.6852 275.814 94.7563 275.926 96.876 275.929C102.526 275.936 116.896 275.845 119.626 275.846C125.908 275.847 144.742 275.938 153.038 275.916C160.641 275.897 159.217 275.779 165.791 275.769C170.972 275.76 165.328 275.859 176.896 275.889C182.629 275.904 202.686 275.833 207.56 275.833C212.433 275.833 217.854 275.903 224.575 275.898C234.256 275.89 255.316 275.851 265.168 275.829C265.756 275.827 267.189 275.736 268.638 275.738C271.64 275.742 270.739 275.854 273.005 275.866C275.273 275.877 314.552 275.864 321.224 275.865C325.822 275.865 328.997 275.798 331.538 275.799C333.532 275.799 333.746 275.893 335.78 275.894C336.41 275.894 341.77 275.813 347.126 275.815C352.186 275.817 371.4 275.894 373.626 275.895C375.075 275.895 373.486 275.829 377.771 275.83C381.675 275.832 384.24 275.918 386.466 275.92C391.63 275.923 397.403 275.849 402.883 275.848C418.634 275.847 417.824 275.955 418.769 275.958C421.389 275.968 422.439 275.87 423.3 275.868C426.932 275.859 435.833 275.841 439.07 275.837C443.103 275.833 444.811 275.926 449.096 275.926C452.289 275.926 458.738 275.835 466.023 275.831C482.447 275.82 501.978 275.803 518.107 275.807C522.917 275.807 523.655 275.893 525.125 275.895C532.852 275.907 537.177 275.811 539.382 275.813C555.113 275.821 583.174 275.971 597.771 275.983C603.715 275.988 629.737 275.919 644.418 275.932C646.097 275.933 644.525 276 646.394 275.989C650.865 275.964 650.45 275.828 652.718 275.832C653.812 275.835 656.308 275.912 659.495 275.919C676.024 275.959 687.391 275.899 694.931 275.903C767.347 275.943 841.191 275.979 908.819 275.991C916.359 275.992 925.709 275.911 937.093 275.989C937.443 276.032 937.793 276.074 938.143 276.116C938.542 276.075 938.94 276.033 939.339 275.992C952.233 275.969 957.106 275.916 970.273 275.969C971.407 275.973 974.869 276.166 977.011 275.926C985.965 276.046 985.399 276 987.297 275.955C988.144 275.924 989.485 275.937 992.416 275.657C1001.77 274.723 1010.57 271.294 1017.9 265.872C1019.9 264.362 1016.89 267.027 1012.73 269.447C1008.6 271.941 1003.26 273.771 1002.6 273.942C1000.49 274.597 998.21 275.013 996.121 275.364C992.963 275.904 989.813 276.131 987.297 276.133C984.81 276.141 982.939 276.137 982.226 276.085C973.869 276.197 984.273 276.141 983.229 276.242C977.651 276.2 972.072 276.158 966.494 276.116C963.653 276.461 932.83 276.012 934.972 276.274C932.52 276.221 930.068 276.169 927.617 276.116C916.865 276.446 910.542 276.214 896.201 276.116C897.235 276.158 898.27 276.2 899.305 276.242C899.011 276.26 886.354 276.327 890.879 276.148C877.904 276.384 878.45 275.991 866.818 276.275C859.909 276.312 864.063 276.146 851.693 276.149C844.363 276.151 835.264 276.237 827.073 276.243C825.186 276.244 824.366 276.149 822.687 276.149C821.009 276.149 820.19 276.243 818.156 276.245C813.956 276.25 808.51 276.184 805.885 276.191C803.533 276.196 800.17 276.279 794.5 276.292C774.7 276.338 780.681 276.219 777.554 276.18C774.193 276.137 771.778 276.293 765.08 276.275C764.407 276.273 766.146 276.176 763.961 276.18C762.2 276.182 761.313 276.288 755.478 276.308C753.155 276.315 717.083 276.338 711.588 276.34C703.166 276.343 684.406 276.254 675.69 276.254C672.331 276.254 668.741 276.339 665.172 276.338C653.348 276.336 634.418 276.329 619.422 276.325C605.918 276.321 582.213 276.135 574.818 276.303C555.857 276.325 551.252 276.181 549.822 276.179C545.958 276.174 544.168 276.269 539.296 276.273C476.183 276.329 393.075 276.266 333.302 276.273C241.532 276.286 149.431 276.313 57.2969 276.318C29.6961 276.994 4.80329 252.097 5.48037 224.5C5.48257 205.18 5.48619 185.862 5.49156 166.549C5.44926 166.177 5.40696 165.804 5.36467 165.431C5.3374 181.876 5.26392 201.203 5.24712 217.438C5.24482 219.689 5.24465 222.053 5.24588 224.5C3.86653 246.232 24.0515 268.609 37.5224 272.808C31.4591 270.675 23.2992 264.162 23.4458 264.3C32.0805 271.701 43.1868 276.145 54.5564 276.709C54.2195 276.623 53.8847 276.534 53.5522 276.441C54.8027 276.528 56.0364 276.57 57.2969 276.569C68.1107 276.557 79.1017 276.568 89.9064 276.559C92.0041 276.557 90.5185 276.495 92.3452 276.495C94.389 276.495 93.0035 276.558 93.3863 276.559C98.552 276.559 100.111 276.495 100.742 276.496C102.359 276.498 101.101 276.56 105.764 276.577C114.413 276.609 120.607 276.446 118.575 276.717C121.368 276.717 124.16 276.717 126.952 276.717C127.675 276.643 128.398 276.57 129.121 276.496C146.297 276.793 154.217 276.272 163.709 276.685C166.839 276.622 169.968 276.559 173.098 276.496C174.862 276.57 176.626 276.643 178.39 276.717C178.734 276.654 179.078 276.59 179.422 276.527C196.285 276.574 214.24 276.498 230.368 276.505C241.603 276.51 244.295 276.535 254.246 276.531C276.382 276.52 254.4 276.645 272.793 276.78C271.836 276.703 270.878 276.626 269.92 276.548C272.967 276.52 276.013 276.491 279.059 276.463C281.18 276.526 283.301 276.589 285.421 276.652C294.829 276.325 300.923 276.589 302.204 276.589C303.239 276.589 306.793 276.391 317.927 276.559C313.31 276.289 326.42 276.557 327.47 276.559C328.468 276.56 341.232 276.499 346.412 276.502C350.488 276.504 359.18 276.562 365.249 276.559C370.607 276.557 370.063 276.465 370.454 276.464C377.049 276.456 372.916 276.528 377.684 276.531C382.451 276.535 386.15 276.457 387.179 276.464C387.697 276.467 385.966 276.553 388.336 276.561C394.701 276.583 406.21 276.509 413.496 276.511C416.079 276.511 419.334 276.584 422.21 276.586C426.62 276.589 428.681 276.493 431.243 276.496C432.134 276.497 437.822 276.646 444.893 276.623C446.238 276.618 450.189 276.304 455.439 276.749C455.844 276.687 456.249 276.624 456.653 276.561C480.366 276.406 486.964 276.915 497.507 276.464C514.724 276.514 502.905 276.69 504.795 276.717C506.016 276.734 511.629 276.685 512.246 276.688C513.338 276.694 513.151 276.75 514.348 276.75C536.295 276.739 526.551 276.633 533.502 276.565C550.031 276.404 562.927 276.761 534.177 276.654C534.177 276.686 534.177 276.717 534.177 276.749C541.256 276.719 559.226 276.733 553.225 276.893C548.5 277.018 505.867 276.936 530.013 277.113C535.494 277.153 538.334 277.035 547.827 277.256C554.105 277.268 555.009 276.981 563.511 277.096C562.113 276.996 560.716 276.896 559.318 276.796C570.911 276.665 585.213 276.84 594.117 276.784C597.143 276.765 608.043 276.288 605.502 276.765C610.589 276.735 634.549 276.823 639 276.78C640.071 276.77 641.466 276.516 656.959 276.605C658.036 276.637 659.112 276.668 660.189 276.7C646.018 276.793 671.044 276.887 664.247 277.128C661.937 277.02 650.7 276.954 648.891 276.899C645.803 276.805 655 276.684 643.28 276.717C635.893 277.12 657.016 276.935 653.788 277.318C669.174 277.139 670.712 277.309 674.195 277.317C689.085 277.345 698.456 277.305 712.504 277.35C715.927 277.271 690.495 277.157 687.344 277.191C698.938 276.913 678.983 276.9 670.561 277.066C669.854 276.981 669.147 276.897 668.44 276.813C679.404 276.859 690.097 276.882 700.956 276.813C701.662 276.844 702.369 276.876 703.076 276.907C700.641 276.955 698.205 277.002 695.769 277.05C704.799 277.127 699.384 276.882 711.415 277.097C711.787 277.002 712.16 276.907 712.533 276.812C724.069 276.844 735.604 276.875 747.14 276.907C753.146 276.717 775.343 276.787 771.278 277.034C780.238 277.051 769.177 276.92 777.573 276.86C781.227 276.834 788.369 276.827 790.134 276.893C789.374 277.128 778.686 277.157 775.452 277.318C777.414 277.37 827.118 277.202 822.687 277.476C826.656 277.509 824.831 277.368 831.99 277.332C852.047 277.231 883.115 277.51 899.266 277.16C880.301 276.965 874.691 277.172 860.157 277.18C850.874 277.185 794.273 277.218 806.917 276.971C804.837 277.002 802.759 277.034 800.68 277.065C798.578 276.991 796.477 276.917 794.375 276.844C800.297 276.833 806.219 276.822 812.141 276.812C813.555 276.885 814.969 276.959 816.383 277.033C817.035 276.98 817.688 276.927 818.34 276.875C820.833 276.865 823.327 276.854 825.82 276.844C825.12 276.907 824.419 276.97 823.719 277.033C827.562 277.044 831.405 277.055 835.248 277.066C834.213 276.981 833.179 276.897 832.144 276.812C850.243 276.791 844.113 276.844 854.152 277.002C861.646 277.018 848.986 276.856 864.842 276.815C883.28 276.767 871.184 277.025 895.063 276.969C895.407 276.927 895.751 276.885 896.094 276.843C901.345 276.885 906.596 276.927 911.846 276.969C911.152 276.917 910.458 276.865 909.764 276.812C920.601 276.833 935.535 276.733 939.127 276.938C928.142 276.839 928.25 277.198 931.106 277.264C934.268 277.336 960.782 277.334 987.297 277.315C1011.19 277.97 1028.81 259.039 1032.07 252.43C1037.76 243.265 1040.06 233.707 1040.09 224.5C1040.09 215.273 1040.08 206.278 1039.99 196.435C1039.93 201.854 1039.91 212.803 1039.91 224.5C1040.54 242.046 1028.69 258.147 1024.77 261.366C1024.11 261.947 1024.22 261.696 1020.15 265.578C1011.78 272.299 1000.08 277.13 987.297 277.102C978.514 277.117 969.395 277.132 960.113 277.128C960.81 277.033 961.507 276.938 962.204 276.844C974.202 277.016 985.437 276.717 987.297 276.857C987.61 276.881 987.656 276.916 987.393 276.97C990.161 276.966 992.926 276.745 995.654 276.309C995.643 276.246 995.633 276.184 995.623 276.121C999.726 275.465 1003.75 274.316 1007.57 272.704C1007.59 272.763 1007.62 272.821 1007.64 272.88C1010.83 271.54 1013.87 269.884 1016.73 267.945C1016.99 267.691 1017.25 267.434 1017.51 267.175C1021.89 264.448 1030.04 256.203 1033.58 248.806C1037.22 241.526 1038.29 236.638 1035.98 244.03C1037.79 239.526 1038.96 234.776 1039.46 229.944C1039.41 229.955 1039.36 229.966 1039.31 229.977C1039.5 228.162 1039.59 226.336 1039.58 224.5C1039.58 224.245 1039.58 223.99 1039.58 223.735C1039.59 223.99 1039.61 224.245 1039.62 224.5C1039.65 224.936 1039.67 225.372 1039.69 225.806C1039.69 225.371 1039.7 224.935 1039.7 224.5C1039.65 215.329 1039.84 206.711 1039.7 200.657C1039.67 204.841 1039.64 209.024 1039.61 213.208C1039.67 205.184 1039.54 190.403 1039.54 189.08C1039.54 185.047 1039.64 182.921 1039.64 178.553C1039.65 174.61 1039.57 175.152 1039.58 174.417C1039.65 153.146 1040.04 161.252 1039.58 151.32C1039.64 150.263 1039.7 149.206 1039.77 148.149C1039.71 146.742 1039.66 145.334 1039.61 143.927C1039.61 137.645 1039.62 131.363 1039.62 125.081C1039.55 127.176 1039.47 129.271 1039.39 131.366C1039.35 121.95 1039.51 117.558 1039.51 116.646C1039.52 114.065 1039.42 112.884 1039.42 112.086C1039.43 73.7144 1039.52 97.0211 1039.89 77.8457C1039.75 71.0084 1039.6 77.9258 1039.45 78.8965C1039.52 69.8462 1039.48 66.9933 1039.49 57.5C1039.49 57.4574 1039.49 57.4148 1039.49 57.3719C1039.49 54.9057 1039.34 52.2701 1039.14 50.7215C1038.99 49.3854 1038.19 45.2456 1037.2 42.1719C1035.66 37.0312 1032.62 30.4087 1027.94 24.6844C1024.65 19.5132 1009.24 7.38334 995.863 6.02239C990.338 5.24028 991.619 5.4645 990.179 5.32951C989.893 5.31485 988.785 5.27032 987.297 5.29052C985.618 5.31303 983.482 5.33691 981.563 5.33709C951.929 5.33899 921.559 5.28497 891.778 5.28655C870.797 5.2875 849.477 5.35614 828.454 5.34917C823.98 5.34759 826.349 5.28493 824.396 5.28271C823.724 5.28215 822.917 5.39149 815.999 5.34752C813.5 5.33167 816.374 5.2552 813.917 5.2514C812.721 5.24958 812.213 5.34543 805.222 5.3673C792.517 5.40723 785.688 5.27945 784.554 5.28326C782.415 5.29061 783.041 5.36994 780.207 5.37279C766.348 5.38674 754.777 5.40019 742.409 5.40685C736.633 5.41002 696.811 5.42606 694.624 5.41179C689.732 5.38009 694.286 5.21445 688.011 5.22009C686.254 5.26202 684.496 5.30395 682.738 5.34588C685.531 5.37774 688.323 5.40959 691.115 5.44145C683.428 5.38819 674.713 5.46353 669.021 5.46068C667.969 5.46003 658.292 5.38491 653.356 5.39312C655.454 5.36199 657.553 5.33086 659.651 5.29974C658.909 5.27319 658.166 5.24664 657.424 5.22009C647.554 5.26034 637.113 5.2593 626.991 5.25359C623.341 5.25165 624.575 5.18715 620.88 5.18493C599.356 5.17133 604.792 5.43952 584.084 4.9361C591.076 4.98174 616.584 4.9177 620.292 4.93445C622.875 4.94618 632.893 5.37156 629.218 4.935C649.885 4.9369 631.934 5.17769 651.235 5.12506C650.85 5.07178 650.464 5.01849 650.079 4.96521C656.817 4.93162 661.794 4.9047 665.888 4.99872C667.261 4.74023 690.155 4.89146 702.712 4.87403C720.858 4.8493 741.359 4.78625 759.336 4.77515C765.53 4.77139 769.038 4.8727 769.815 4.87238C770.951 4.87165 774.141 4.78293 776.408 4.78229C784.873 4.77977 810.625 4.92975 817.031 4.68342C766.666 4.68342 716.301 4.68342 665.936 4.68342C672.269 4.8045 621.323 4.81633 618.74 4.81031C616.348 4.8049 618.361 4.71989 617.65 4.71473C612.357 4.67827 607.84 4.80152 606.16 4.80152C604.878 4.8015 602.291 4.74367 597.734 4.74494C596.898 4.74512 596.666 4.80628 595.768 4.80646C589.824 4.80646 583.957 4.8056 577.992 4.80591C577.629 4.80532 576.124 4.71599 574.618 4.71583C573.108 4.71583 571.615 4.80509 571.234 4.80537C566.467 4.80473 558.294 4.74668 553.757 4.74604C552.184 4.74607 553.275 4.81148 551.511 4.81086C546.093 4.80927 547.877 4.68121 541.177 4.71418C538.932 4.72529 539.077 4.82322 534.777 4.81031C531.731 4.80112 532.059 4.62659 531.576 4.62025C530.909 4.61259 520.4 4.75041 516.962 4.63618C524.474 4.33462 508.745 4.62045 509.501 4.74769C505.337 4.71565 501.172 4.6836 497.008 4.65156C495.588 4.68379 494.167 4.71601 492.747 4.74824C475.945 4.60304 465.694 4.69022 449.165 4.64552C448.367 4.6433 434.44 4.57166 435.091 4.52632C443.427 4.44835 451.745 4.44478 457.08 4.58894C465.859 4.31407 466.009 4.53312 480.186 4.49666C484.933 4.48429 485.27 4.40972 485.816 4.40877C504.275 4.37168 533.841 4.3396 546.277 4.55763C549.763 4.49866 537.23 4.47528 542.103 4.43184C544.761 4.40806 608.721 4.33842 588.287 4.58949C590.408 4.58253 592.529 4.57558 594.65 4.56862C596.771 4.33147 607.318 4.38571 606.121 4.6219C607.12 4.57356 608.12 4.52522 609.119 4.47688C611.093 4.43599 613.429 4.41408 616.706 4.40108C629.251 4.35164 703.891 4.4339 707.86 4.39998C707.95 4.34395 708.04 4.28793 708.13 4.2319C675.155 4.16849 643.167 4.30772 607.21 4.1473C608.255 4.19985 609.299 4.2524 610.343 4.30495C595.996 4.23135 581.649 4.15774 567.301 4.08414C582.486 3.98902 606.645 3.90915 622.586 3.98746C625.419 4.00142 623.342 4.07471 623.993 4.08359C625.694 4.10664 627.523 3.9795 633.633 3.96713C639.746 3.95479 655.101 4.04492 656.508 4.04239C659.221 4.03716 666.543 3.89168 671.161 3.89353C677.231 3.89606 673.162 3.98611 674.381 3.98801C679.42 3.99686 683.938 3.95224 687.886 3.9589C693.747 3.96879 705.923 4.12713 710.019 3.89463C705.832 3.88401 701.645 3.87339 697.458 3.86277C720.162 3.77939 737.913 4.0766 760.281 3.84739C765.364 3.56586 746.882 3.60391 762.508 3.48375C759.671 3.48778 756.833 3.49181 753.996 3.49584C753.331 3.55479 752.666 3.61375 752 3.67271C747.113 3.6306 742.226 3.58848 737.338 3.54637C738.733 3.59892 740.127 3.65147 741.522 3.70402C724.195 3.74365 706.698 3.79753 700.649 3.51506C700.292 3.58336 699.936 3.65165 699.579 3.71995C683.492 3.63691 659.342 3.92638 663.854 3.54637C663.092 3.56651 662.331 3.58665 661.569 3.60679C651.845 3.52912 655.998 3.68627 652.344 3.70402C651.3 3.70902 632.4 3.62788 640.776 3.51506C622.337 3.42883 628.023 3.78401 622.943 3.7996C611.139 3.62364 589.907 3.88758 598.833 3.60954C597.076 3.5991 595.318 3.58867 593.56 3.57823C587.785 3.79698 582.091 3.54947 575.833 3.46672C573.712 3.46178 571.591 3.45684 569.47 3.45189C568.05 3.5255 566.63 3.5991 565.21 3.67271C545.257 3.32239 551.575 4.28046 542.46 3.47551C543.88 3.42736 545.3 3.3792 546.72 3.33105C550.088 3.30816 553.455 3.28527 556.823 3.26238C543.24 3.24114 529.658 3.2199 516.075 3.19866C498.835 2.97304 489.024 3.21784 469.872 3.03937C468.079 3.06079 466.286 3.08221 464.493 3.10364C466.32 2.92134 473.276 2.94813 460.319 2.86634C459.214 2.73745 467.965 2.72077 471.954 2.81965C472.915 2.84377 464.733 2.9425 473.93 2.94599C480.182 2.94847 468.829 2.79358 487.561 2.85096C486.867 2.81946 486.173 2.78797 485.479 2.75648C487.509 2.75739 489.54 2.75831 491.571 2.75922C493.377 2.8321 495.183 2.90497 496.989 2.97785C501.63 2.87259 504.235 2.72509 514.841 2.75648C511.965 2.80212 515.868 2.94846 521.117 2.94599C521.117 2.89325 521.117 2.84052 521.117 2.78779C533.824 2.75387 529.437 2.90858 540.001 2.78779C541.059 2.82972 542.116 2.87165 543.173 2.91358C548.928 2.74079 570.115 2.62325 566.251 2.88227C572.194 2.63054 584.677 2.74412 589.319 2.94544C589.675 2.89307 590.032 2.8407 590.389 2.78834C592.86 2.77772 595.331 2.7671 597.802 2.75648C599.18 2.78815 600.559 2.81983 601.937 2.85151C603.689 2.81983 605.44 2.78815 607.191 2.75648C608.248 2.80903 609.305 2.86158 610.362 2.91413C613.177 2.85114 615.992 2.78815 618.807 2.72517C620.529 2.7671 622.252 2.80903 623.974 2.85096C624.152 2.74135 641.216 2.71694 645.982 2.78889C647.402 2.75703 648.822 2.72517 650.242 2.69331C650.936 2.74549 651.631 2.79768 652.325 2.84986C653.382 2.80811 654.439 2.76637 655.496 2.72462C657.932 2.76637 660.367 2.80811 662.803 2.84986C672.737 2.59403 673.057 2.81849 675.325 2.8169C679.53 2.81396 693.85 2.65376 696.244 2.662C698.635 2.6703 699.789 2.76213 701.719 2.77076C733.537 2.91501 720.458 2.6686 726.841 2.62959C730.285 2.60835 732.722 2.69401 735.767 2.68452C740.976 2.66867 767.252 2.55532 768.764 2.56642C770.965 2.58243 765.783 2.98637 772.938 2.88227C773.176 2.66537 788.477 2.88429 781.325 2.5818C787.626 2.60835 793.927 2.6349 800.228 2.66145C799.514 2.40433 807.285 2.5697 815.749 2.55543C827.743 2.53544 854.745 2.36639 853.758 2.63014C856.631 2.56953 859.504 2.50893 862.376 2.44832C882.033 2.53135 901.313 2.44435 920.823 2.44118C942.47 2.43751 964.804 2.44321 987.297 2.45451C1016.8 1.69963 1043.14 28.6659 1042.28 57.5C1042.27 67.1513 1042.26 76.7081 1042.26 86.1263C1042.25 88.8969 1042.17 88.4985 1042.17 90.4932C1042.16 100.973 1042.22 128.214 1042.2 142.895C1042.19 147.598 1042.11 149.887 1042.1 151.378C1042.09 156.44 1042.2 155.245 1042.2 157.577C1042.19 161.254 1042.09 180.703 1042.08 187.402C1042.07 190.719 1042.16 194.643 1042.13 198.527C1042.13 198.861 1042.04 198.244 1042.04 198.527C1042.03 205.605 1042.11 201.348 1042.1 203.742C1042.09 210.496 1042.08 217.434 1042.08 224.5C1042.11 235.654 1038.54 247.147 1031.73 256.511C1029.02 260.433 1023.8 265.562 1020.5 267.954C1019.23 268.863 1021.59 267.358 1017.15 270.393C1015.6 271.386 1015.02 271.638 1013.19 272.631C1005.22 276.618 1002.25 277.669 994.636 278.689C992.417 278.989 989.955 279.184 987.297 279.188C972.784 279.213 953.028 279.267 941.874 279.268C938.769 279.268 937.257 279.216 934.297 279.217C932.197 279.217 928.502 279.299 925.226 279.3C921.95 279.301 916.778 279.223 910.477 279.226C903.843 279.229 895.595 279.275 894.099 279.275C892.293 279.275 891.451 279.176 889.645 279.178C884.185 279.181 869.565 279.278 862.529 279.288C854.969 279.299 850.43 279.251 847.847 279.252C845.455 279.254 842.665 279.337 841.572 279.337C839.872 279.339 839.47 279.242 837.311 279.242C833.783 279.244 830.146 279.305 824.856 279.307C729.588 279.337 636.183 279.283 543.499 279.213C533.166 279.205 527.327 279.273 512.102 279.242C505.929 279.229 508.529 279.129 503.725 279.148C501.583 279.156 502.124 279.235 499.416 279.239C487.444 279.256 473.496 279.182 468.308 279.184C466.251 279.184 463.899 279.274 459.68 279.275C428.24 279.285 391.043 279.26 357.209 279.275C339.294 279.284 312.172 279.329 291.61 279.335C234.8 279.352 173.684 279.331 121.872 279.34C100.323 279.344 78.8015 279.353 57.2969 279.362C28.0523 280.079 1.70437 253.726 2.41167 224.5C2.41119 195.732 2.42274 166.965 2.45887 138.17C2.31081 163.144 2.27244 194.296 2.25548 224.5C2.15321 239.057 8.29758 253.106 17.6072 262.662C27.7246 273.291 42.3943 279.655 57.2969 279.576C162.075 279.599 271.597 279.502 377.491 279.506C419.37 279.508 472.172 279.503 518.021 279.553C520.1 279.555 524.409 279.486 528.904 279.493C529.859 279.495 541.698 279.621 545.687 279.622C541.906 279.399 557.533 279.598 562.364 279.592C568.456 279.585 581.161 279.474 595.419 279.537C608.356 279.594 604.788 279.68 605.502 279.685C610.078 279.72 611.675 279.582 615.18 279.568C629.504 279.512 703.182 279.592 723.744 279.597C729.058 279.599 729.208 279.686 730.405 279.687C733.576 279.687 738.089 279.601 743.168 279.601C752.326 279.602 762.873 279.685 767.914 279.686C779.969 279.687 802.845 279.589 818.513 279.587C822.919 279.586 822.65 279.678 824.644 279.677C833.425 279.676 856.295 279.568 867.194 279.567C884.899 279.565 903.111 279.625 921.11 279.595C922.251 279.635 923.391 279.676 924.532 279.717C926.331 279.674 928.131 279.631 929.93 279.588C948.942 279.609 968.166 279.581 987.297 279.558C999.244 279.585 1011.1 275.55 1020.49 268.404C1023.92 266.794 1035.51 252.936 1036.25 249.846C1037.39 247.628 1038.33 245.362 1039.53 241.875C1040.98 236.926 1040.14 241.721 1041.77 233.421C1042.07 231.168 1041.78 233.348 1042.19 228.81C1042.21 228.483 1042.35 226.869 1042.35 224.5C1042.34 216.271 1042.32 198.748 1042.32 197.563C1042.33 195.043 1042.51 192.796 1042.51 192.145C1042.53 188.765 1042.4 188.909 1042.39 186.641C1042.35 179.949 1042.44 171.206 1042.44 170.118C1042.41 156.97 1042.3 132.392 1042.37 118.593C1042.38 116.685 1042.48 116.914 1042.48 116.579C1042.5 114.417 1042.39 113.073 1042.39 111.016C1042.37 99.9479 1042.45 82.6149 1042.47 71.4834C1042.47 70.2015 1042.42 67.4954 1042.42 65.2079C1042.43 61.2375 1042.45 58.8808 1042.46 57.5C1042.45 54.2473 1042.52 56.1861 1042.51 55.6548C1042.45 53.8435 1042.23 50.6428 1041.23 45.9143C1039.77 33.2259 1024.57 13.0287 1011.77 8.05567C1002.68 3.91082 1002.59 4.52737 1002.01 4.20157C1000.66 3.86001 996.868 2.77364 990.288 2.39567C989.193 2.33903 988.202 2.3187 987.297 2.31883C978.206 2.3213 978.964 2.24821 974.401 2.25167C973.981 2.25167 974.711 2.33782 969.166 2.3467C958.454 2.36379 934.391 2.2791 922.924 2.28353C918.514 2.28512 917.482 2.36819 912.966 2.36977C905.807 2.37261 889.649 2.28275 888.375 2.28298C888.018 2.28298 887.217 2.37856 885.117 2.37856C882.807 2.37855 880.534 2.32936 878.812 2.32967C869.005 2.33099 852.11 2.49779 856.805 2.15664C853.662 2.24087 850.519 2.3251 847.377 2.40932C826.836 2.39252 806.882 2.42626 786.53 2.44338C781.953 2.44717 778.132 2.38257 774.268 2.3857C770.406 2.38887 753.364 2.49575 750.516 2.49776C745.433 2.50125 716.551 2.51251 712.959 2.5049C705.944 2.49032 699.139 2.34933 696.282 2.37691C693.993 2.3991 696.11 2.47854 691.742 2.50105C684.18 2.53999 671.331 2.43795 669.021 2.43953C668.035 2.44018 669.881 2.5021 660.644 2.50655C655.666 2.50908 652.993 2.44086 651.187 2.44118C650.626 2.44154 651.468 2.55217 641.615 2.53731C634.81 2.52685 631.908 2.4415 631.194 2.44118C630.122 2.44061 627.536 2.53169 623.232 2.52852C613.171 2.52057 594.777 2.41616 585.222 2.40822C583.374 2.40664 584.002 2.51667 576.633 2.50655C571.362 2.49926 572.282 2.41173 570.309 2.40822C567.18 2.40283 562.517 2.51002 555.608 2.50655C546.913 2.50211 482.351 2.39093 479.01 2.36208C476.763 2.34274 474.156 2.34152 473.043 2.29397C473.997 2.24838 474.952 2.20278 475.906 2.15719C485.793 2.31718 481.804 2.13433 484.428 2.12259C488.229 2.10578 502.556 2.12911 506.021 2.08853C507.256 2.07387 504.429 1.97655 511.063 1.92649C518.181 1.87296 521.348 2.04621 524.182 1.80949C534.285 2.07231 543.988 1.79336 532.29 1.71885C525.759 1.67731 461.698 1.58347 448.616 1.56889C438.009 1.55718 418.143 1.62761 405.102 1.60954C397.436 1.59876 378.556 1.58654 379.354 1.46068C372.549 1.44483 379.751 1.57013 378.322 1.58757C375.336 1.62398 354.097 1.53744 350.078 1.54088C330.251 1.55736 305.232 1.69807 285.973 1.53923C286.869 1.50554 287.766 1.47185 288.662 1.43816C292.989 1.37634 313.068 1.46472 315.336 1.30303C285.973 1.30303 256.61 1.30303 227.247 1.30303C227.793 1.44063 191.374 1.43878 189.652 1.37664C190.291 1.30999 190.93 1.24334 191.57 1.17669C212.15 1.42963 210.305 1.09529 224.124 1.27282C229.749 1.27532 228.051 1.16521 230.823 1.14428C258.415 0.936368 231.266 1.37026 252.388 1.27172C246.03 1.11199 263.328 1.05362 271.079 1.03333C272.844 1.02889 296.013 1.06937 298.765 1.06683C314.222 1.05257 340.769 0.965061 356.122 1.05255C368.219 1.06301 374.877 0.94924 385.861 0.922916C394.197 0.902947 391.808 0.982907 395.732 0.983889C403.965 0.986108 406.674 0.742668 411.946 1.08221C417.527 1.03992 423.109 0.997621 428.69 0.955325C428.69 1.00806 428.69 1.06079 428.69 1.11352C432.196 1.11352 435.702 1.11352 439.207 1.11352C440.239 1.06097 441.27 1.00842 442.302 0.955874C453.428 1.02785 448.783 1.15482 450.862 1.30413C453.265 1.31438 455.669 1.32464 458.073 1.33489C459.933 1.22027 461.794 1.10565 463.654 0.99103C474.386 1.00037 485.119 1.00971 495.851 1.01904C496.545 1.07159 497.239 1.12414 497.933 1.17669C497.956 1.12414 497.978 1.07159 498.001 1.01904C516.175 1.00824 534.349 0.997438 552.524 0.986635C557.358 0.902334 528.238 0.838452 526.033 0.833381C513.767 0.805491 481.192 0.890008 481.15 0.702647C473.525 0.842443 450.57 0.807733 443.43 0.640027C454.268 0.650098 465.107 0.660168 475.945 0.670239C475.595 0.607435 475.244 0.544632 474.894 0.481829C488.398 0.735128 490.374 0.721187 504.257 0.481829C504.27 0.566055 504.283 0.650281 504.296 0.734507C513.975 0.441632 531.086 0.93844 531.576 0.576858C536.73 0.606154 541.884 0.63545 547.039 0.664746C558.168 0.620668 540.886 0.342586 584.46 0.451617C587.464 0.459226 586.837 0.551334 591.353 0.544998C592.655 0.543096 600.112 0.409104 614.373 0.423054C616.599 0.425282 616.767 0.505191 619.077 0.515336C624.411 0.539427 635.035 0.381386 630.211 0.638929C651.336 0.714041 642.581 0.502671 649.134 0.41866C653.501 0.362906 652.622 0.515284 656.402 0.480731C661.08 0.437878 657.647 0.284263 676.376 0.354941C674.275 0.365377 672.173 0.375814 670.072 0.386251C671.129 0.427998 672.186 0.469744 673.243 0.511491C683.933 0.411322 682.922 0.557682 687.963 0.323081C695.734 0.427701 702.457 0.436033 713.084 0.417012C733.73 0.37992 723.146 0.12709 746.708 0.467547C750.526 0.419758 754.343 0.371969 758.16 0.32418C764.435 0.424672 759.36 0.550401 768.726 0.575759C761.396 0.32752 781.157 0.418034 784.496 0.196743C784.846 0.249475 785.197 0.302208 785.547 0.354941C787.639 0.354941 789.731 0.354941 791.823 0.354941C791.829 0.312644 791.835 0.270349 791.842 0.228053C794.628 0.259729 797.414 0.291405 800.2 0.323081C802.295 0.281151 804.39 0.239222 806.485 0.197292C809.929 0.285729 813.374 0.374166 816.819 0.462604C818.981 0.468646 821.144 0.474688 823.306 0.480731C822.622 0.417744 821.937 0.354758 821.253 0.291771C824.032 0.312828 826.812 0.333884 829.591 0.354941C826.357 0.251587 828.39 0.130403 837.043 0.133573C844.183 0.136116 836.14 0.351829 851.493 0.262109C852.564 0.255713 854.46 0.101867 868.97 0.078094C886.372 0.0495882 877.919 0.161023 881.02 0.164883C881.629 0.165517 886.945 0.0880928 891.922 0.0769954C894.747 0.0706778 897.468 0.133187 897.841 0.133024C899.584 0.130171 900.093 0.0417385 902.507 0.0385442C908.638 0.0309372 916.87 0.0742674 922.876 0.0698543C925.606 0.0679522 928.174 0.0155582 929.392 0.0149245C931.283 0.0143189 933.68 0.0943403 935.591 0.0940232C942.647 0.0923491 953.358 -0.173154 956.635 0.195644C963.418 -0.143482 977.629 0.26653 976.589 0.0390935C979.493 0.0528421 983.171 0.05723 987.297 0.0564742C999.053 -0.255067 1013.99 4.84839 1023.18 12.5965C1032.59 20.1293 1036.68 28.3667 1036.27 27.786C1041.94 37.3433 1040.76 36.8592 1042.32 41.2125C1043.67 46.2395 1043.09 43.6141 1043.89 47.6734C1044.46 50.9577 1044.72 54.2386 1044.72 57.5C1044.71 63.2295 1044.7 68.8997 1044.69 74.7224C1044.64 73.3279 1044.59 71.9333 1044.54 70.5387C1044.52 79.8633 1044.64 76.653 1044.67 86.1649C1044.71 103.66 1044.61 96.2875 1044.47 98.8702C1044.61 98.177 1044.59 118.807 1044.57 120.907C1044.56 122.159 1044.39 116.67 1044.44 129.303C1044.49 128.612 1044.55 127.921 1044.6 127.231C1044.53 132.986 1044.62 148.619 1044.6 151.272C1044.59 152.49 1044.17 159.006 1044.51 164.97C1044.45 165.69 1044.4 166.41 1044.35 167.13C1044.41 173.752 1044.47 180.375 1044.54 186.997C1044.44 188.055 1044.35 189.112 1044.25 190.169C1044.25 192.27 1044.25 194.372 1044.25 196.473C1044.34 195.079 1044.42 193.684 1044.51 192.29C1044.47 205.266 1044.6 221.119 1044.32 223.793C1044.32 224.028 1044.33 224.264 1044.33 224.5C1044.38 227.242 1044.23 229.975 1043.89 232.702C1043.52 234.622 1043.05 236.518 1042.49 238.378C1038.46 251.584 1037.67 251.659 1032.42 259.466C1032.59 259.129 1032.75 258.79 1032.91 258.45C1029.04 264.234 1019.41 273.09 1009.97 276.893C1005.61 278.977 997.512 280.69 996.388 280.765C995.692 280.91 991.013 281.704 987.297 281.685C985.271 281.704 983.572 281.678 983.152 281.55C967.778 281.703 961.01 281.547 954.772 281.551C950.72 281.553 948.872 281.636 944.294 281.645C937.741 281.657 931.147 281.617 927.366 281.623C925.203 281.626 924.799 281.707 923.308 281.709C916.257 281.722 920.388 281.639 912.955 281.645C912.269 281.645 906.835 281.744 900.712 281.731C897.288 281.724 888.43 281.613 887.65 281.614C884.185 281.616 886.954 281.837 875.109 281.581C875.452 281.623 875.796 281.666 876.14 281.708C861.48 281.815 859.166 281.627 856.205 281.614C855.827 281.613 852.258 281.685 850.122 281.675C846.515 281.658 845.06 281.559 844.261 281.554C841.447 281.539 831.968 281.583 825.772 281.487C827.074 281.77 805.364 281.87 800.554 281.55C796.711 281.613 792.868 281.676 789.025 281.74C787.287 281.687 785.548 281.634 783.81 281.581C782.753 281.634 781.696 281.686 780.638 281.739C775.038 281.623 769.437 281.508 763.836 281.392C763.479 281.508 763.123 281.624 762.766 281.74C761.198 281.726 759.63 281.713 758.062 281.7C756.838 281.608 755.613 281.516 754.389 281.424C752.429 281.441 750.469 281.459 748.509 281.476C748.024 281.543 747.538 281.61 747.053 281.676C736.516 281.753 741.93 281.118 721.855 281.676C718.731 281.624 715.608 281.571 712.485 281.519C708.957 281.774 702.347 281.62 697.013 281.648C693.254 281.669 693.459 281.77 688.337 281.772C683.212 281.775 683.396 281.678 682.997 281.677C678.819 281.671 675.67 281.757 672.605 281.74C672.143 281.737 670.986 281.622 667.081 281.614C663.175 281.607 660.82 281.73 655.003 281.707C652.021 281.695 651.16 281.598 648.515 281.589C635.914 281.547 623.224 282.039 613.773 281.456C611.643 281.53 596.19 281.788 589.577 281.774C579.292 281.75 583.255 281.635 579.166 281.614C578.578 281.611 575.446 281.65 566.817 281.643C565.273 281.642 565.632 281.706 565.41 281.707C555.351 281.706 535.816 281.655 524.768 281.646C523.781 281.645 518.613 281.825 509.856 281.582C496.877 281.762 472.43 281.377 455.314 281.647C452.941 281.652 450.06 281.588 449.009 281.59C439.957 281.61 443.274 281.806 422.818 281.519C424.474 281.619 419.688 281.709 412.927 281.702C402.762 281.69 409.983 281.504 401.813 281.519C401.813 281.572 401.813 281.624 401.813 281.677C383.018 281.536 379.278 281.76 360.419 281.762C353.635 281.762 343.615 281.645 341.997 281.645C341.372 281.645 333.953 281.772 333.244 281.773C329.254 281.777 327.001 281.718 323.556 281.718C312.174 281.717 298.59 281.882 301.047 281.582C297.918 281.646 294.788 281.709 291.658 281.772C279.834 281.452 270.991 281.893 268.513 281.582C266.399 281.647 264.284 281.711 262.17 281.775C211.455 281.742 160.74 281.71 110.025 281.677C108.008 281.777 85.8929 281.742 84.7587 281.726C79.5512 281.656 85.0517 281.438 74.4248 281.488C73.2488 281.583 72.0727 281.679 70.8966 281.774C57.5398 281.805 63.9642 281.71 58.6926 281.646C58.0165 281.649 57.615 281.659 57.2969 281.67C56.5194 281.688 56.201 281.751 53.9774 281.642C45.3084 281.329 31.8137 277.75 21.3059 269.044C10.5956 260.608 3.9262 247.857 1.76542 238.579C0.871721 234.828 1.13588 235.37 0.908156 234.196C0.540529 232.072 0.044126 228.545 0.0251112 224.5C0.0115952 222.543 0.00132322 220.459 0.00130749 218.363C0.00194168 180.581 0.0511189 127.042 0.124351 89.0066C0.129423 86.4233 0.211962 86.1034 0.216084 84.3602C0.221447 81.9443 0.15473 76.5479 0.161703 74.007C0.168046 71.6135 0.230736 70.0804 0.238056 67.5194C0.247118 64.4176 0.246362 61.0329 0.243778 57.5C0.10145 46.9193 3.6743 35.1846 9.22571 26.9593C9.50343 25.7249 18.9741 15.2933 19.5036 15.3981C20.2351 14.8226 18.331 16.6621 18.1739 16.9621C18.1015 17.3833 19.1344 15.4383 27.6544 9.91646C20.0905 14.9403 18.3099 17.6632 19.8309 16.2212C21.4681 15.0154 26.8339 9.72562 37.7875 5.57545C26.8453 9.70819 17.3306 17.4107 10.9811 27.1938C11.0008 27.2268 11.0206 27.2598 11.0404 27.2927C17.0751 18.7515 24.8443 10.5849 40.062 5.25961C39.5964 5.44685 39.1346 5.64012 38.6766 5.83929C25.0994 10.4287 12.642 23.4088 8.4704 33.2809C15.551 19.2655 28.9167 8.70436 44.0704 5.12528C43.3248 5.33904 42.5802 5.57003 41.8465 5.81544C34.4348 7.40974 20.7437 16.6765 17.1142 21.7773C9.93933 31.0825 12.9687 26.8999 17.6357 21.4853C22.3642 16.0411 30.2923 11.2307 27.2915 13.2625C12.8281 22.9529 3.69492 40.0691 3.83778 57.5C3.83626 64.7536 3.83474 72.0071 3.83322 79.2607C3.86644 79.5327 3.91821 70.2617 3.98351 57.5C3.5613 43.5601 11.537 26.0482 22.8799 17.1132C33.9633 7.77347 45.2398 6.16168 44.7854 6.23964C37.3504 8.06357 30.3325 11.5535 24.3807 16.3554C27.0912 14.2869 29.996 12.486 33.0404 10.986C32.2252 11.4407 31.4189 11.9191 30.6297 12.4165C19.6055 18.9892 11.1706 29.7299 7.46127 41.9728C13.51 23.2142 26.5686 14.087 35.9331 9.92629C45.6468 5.75501 52.7403 5.68448 57.2969 5.93143C56.2474 5.94764 55.2152 5.99456 54.1746 6.07278C50.13 6.02979 37.6343 7.5086 26.6613 15.7349C15.4583 23.5813 7.97682 37.7482 6.44352 48.0796C6.46444 43.6255 14.4231 26.8326 17.7218 24.3661C18.4359 23.5302 16.0655 26.5446 17.7104 24.601C19.7822 22.0159 26.1262 15.8181 32.7434 12.455C39.2634 8.93774 45.2705 7.80752 43.2814 8.35057C42.1126 8.66651 30.128 12.2043 21.1928 21.5294C11.8624 30.4895 7.78661 43.9483 7.23549 48.2254C10.8119 27.7847 28.7618 10.3588 49.2751 7.60856C37.123 10.3964 23.9983 14.7118 12.5387 35.323C11.1601 38.6972 15.0482 28.4151 23.8711 20.6934C32.4116 12.5736 45.0269 9.32504 45.5262 9.36146C37.291 11.4388 29.6468 15.7016 23.5412 21.5581C28.739 16.64 35.0153 12.8665 41.8063 10.6072C41.8345 10.6256 41.8626 10.6441 41.8908 10.6626C24.5434 16.6698 11.0472 31.424 8.59679 52.4217C8.49795 51.7282 11.0207 39.2992 14.4246 34.099ZM346.925 0.732859C346.466 0.617195 354.82 0.636158 359.525 0.638379C358.818 0.617323 358.111 0.596266 357.404 0.57521C367.443 0.597085 386.132 0.641473 386.825 0.417012C393.986 0.389114 390.82 0.584308 393.129 0.60652C394.032 0.615397 403.38 0.5018 410.857 0.640027C412.634 0.639478 414.411 0.638929 416.188 0.638379C416.531 0.564773 416.875 0.491167 417.219 0.417561C419.696 0.506914 422.174 0.596266 424.651 0.685619C398.755 0.701366 372.86 0.717112 346.964 0.732859C346.951 0.732859 346.938 0.732859 346.925 0.732859ZM605.051 0.63783C614.481 0.679362 628.926 0.744938 626.008 0.54335C620.05 0.55397 614.093 0.56459 608.136 0.57521C607.107 0.596083 606.079 0.616957 605.051 0.63783ZM764.935 281.203C757.059 281.005 749.807 281.177 737.625 281.141C737.641 281.183 737.658 281.225 737.674 281.267C742.655 281.166 755.823 281.233 764.935 281.203ZM112.928 1.49144C111.193 1.47588 109.458 1.46031 107.723 1.44475C114.78 1.21934 116.043 1.37819 124.024 1.35631C124.505 1.35495 124.338 1.30335 124.506 1.30303C126.459 1.29955 128.265 1.36166 130.029 1.36071C133.432 1.3588 136.206 1.29587 142.233 1.29809C146.894 1.30001 146.938 1.39895 148.576 1.39641C149.972 1.39397 163.803 1.12179 172.705 1.23931C189.633 1.46314 118.095 1.51237 112.928 1.49144ZM62.753 1.30523C64.4273 1.30431 66.1011 1.3034 67.7754 1.30248C62.7413 1.45456 72.9008 1.43145 80.3553 1.42827C80.1243 1.57411 64.3539 1.51173 57.2969 1.55516C59.1155 1.47185 60.9344 1.38854 62.753 1.30523ZM274.463 1.61778C267.912 1.63264 269.004 1.45062 269.277 1.39641C271.362 1.39641 273.447 1.39641 275.533 1.39641C275.176 1.4702 274.82 1.54399 274.463 1.61778ZM225.194 1.68095C227.231 1.55731 241.452 1.50323 248.194 1.49309C248.489 1.49307 246.637 1.56092 251.404 1.55461C252.836 1.55263 266.919 1.30572 263.821 1.58592C250.951 1.6176 238.082 1.64927 225.213 1.68095C225.207 1.68095 225.2 1.68095 225.194 1.68095ZM210.83 1.60789C213.51 1.56908 216.19 1.53026 218.87 1.49144C220.255 1.54948 221.64 1.60753 223.025 1.66557C219.975 1.68022 216.926 1.69487 213.877 1.70951C212.861 1.67564 211.846 1.64177 210.83 1.60789ZM81.0185 280.227C81.6418 280.289 82.2652 280.351 82.8886 280.414C85.3039 280.452 97.046 280.181 93.3285 280.129C89.2252 280.162 85.1218 280.195 81.0185 280.227ZM31.2224 273.616C28.974 272.384 26.8164 271 24.7629 269.473C22.3197 267.833 20.0006 265.994 17.8347 263.978C26.7711 273.506 40.3038 277.866 38.2262 276.808C40.9817 277.813 43.8163 278.597 46.6982 279.153C44.269 278.692 44.5049 279.201 52.1565 280.18C52.8741 280.167 54.7102 280.309 57.2969 280.301C60.6237 280.289 65.2416 280.309 70.2219 280.287C65.9135 280.279 61.6052 280.272 57.2969 280.265C55.2037 280.262 53.1235 280.144 51.0513 279.909C51.0548 279.878 51.0583 279.847 51.0618 279.815C65.8051 280.426 47.2833 280.585 38.286 276.762C37.5898 276.464 36.9001 276.152 36.2201 275.827C34.5205 275.173 32.8518 274.435 31.2224 273.616ZM1036.66 250.232C1035.79 251.835 1034.84 253.395 1033.81 254.902C1030.03 260.945 1038.72 249.153 1041.3 239.036C1040.71 240.64 1041.58 237.684 1042.17 234.13C1042.79 230.582 1042.95 226.437 1042.94 225.997C1042.81 227.784 1042.59 229.573 1042.29 231.343C1041.57 237.89 1039.66 244.327 1036.66 250.232ZM996.153 279.172C998.968 278.697 994.34 279.997 987.297 280.049C979.135 280.082 967.746 280.074 962.291 280.049C959.875 280.038 955.57 279.925 953.827 279.939C952.77 279.981 951.713 280.023 950.656 280.065C949.404 279.92 930.005 280.083 922.363 280.16C921.643 280.108 920.924 280.055 920.204 280.003C917.418 280.024 914.632 280.044 911.846 280.065C912.196 280.013 912.546 279.961 912.897 279.908C910.789 279.971 908.681 280.034 906.573 280.097C898.298 280.167 903.401 279.882 897.184 279.971C890.274 280.07 901.597 280.24 901.387 280.35C906.995 280.322 919.747 280.258 925.438 280.255C928.706 280.253 925.002 280.451 939.088 280.223C942.176 280.277 945.264 280.33 948.352 280.383C954.02 280.298 959.688 280.214 965.357 280.13C966.414 280.203 967.471 280.276 968.528 280.35C969.133 280.361 982.242 280.195 981.542 280.139C983.048 280.179 985.005 280.21 987.297 280.233C993.368 280.337 1001.81 279.152 1009.75 275.609C1010.8 275.104 1011.84 274.566 1012.85 273.997C1002.26 278.911 1009.46 275.511 1006.22 276.767C1004.35 277.495 998.387 278.975 996.153 279.172ZM158.397 280.066C139.748 280.245 151.294 280.098 131.136 280.098C132.543 280.193 133.951 280.287 135.358 280.382C145.269 280.209 161.578 280.324 158.417 280.066C158.41 280.066 158.404 280.066 158.397 280.066ZM1.4152 211.596C1.46161 220.223 1.56695 218.372 1.63054 224.5C1.64899 226.028 1.70576 228.017 2.01068 230.713C2.01143 230.72 2.01217 230.727 2.01292 230.734C1.78522 228.665 1.67344 226.589 1.67637 224.5C1.68398 219.492 1.69159 214.484 1.69919 209.475C1.60453 210.182 1.50987 210.889 1.4152 211.596ZM584.747 280.267C594.975 280.308 592.962 280.234 602.244 280.382C616.063 280.203 604.365 280.228 604.365 280.066C601.206 280.113 598.047 280.161 594.889 280.209C587.231 280.057 594.493 279.98 594.493 279.966C594.487 279.966 594.481 279.966 594.474 279.966C594.474 279.917 594.722 279.907 591.785 279.877C589.439 280.007 587.093 280.137 584.747 280.267ZM628.522 280.066C625.014 280.174 623.437 280.313 632.657 280.382C632.664 280.382 632.67 280.382 632.677 280.382C633.417 280.141 642.257 280.335 646.288 280.319C647.345 280.293 648.403 280.267 649.46 280.241C642.48 280.182 635.501 280.124 628.522 280.066ZM782.759 279.845C782.798 280.111 775.06 280.136 785.95 280.382C788.064 280.377 790.178 280.372 792.293 280.367C793.681 280.309 795.069 280.251 796.457 280.192C823.278 280.674 831.273 279.854 785.95 280.16C785.943 280.16 785.937 280.161 785.931 280.161C784.873 280.056 783.816 279.95 782.759 279.845ZM735.524 279.868C735.183 280.007 734.843 280.147 734.502 280.287C728.579 279.95 720.928 280.271 709.313 280.033C708.263 280.076 707.212 280.118 706.161 280.161C701.821 280.067 659.185 280.04 668.421 280.255C672.454 280.349 681.238 280.222 681.994 280.225C684.556 280.235 687.897 280.355 692.222 280.348C694.721 280.344 699.99 280.203 705.091 280.203C716.495 280.204 737.311 280.583 752.307 280.224C753.386 280.266 754.466 280.308 755.546 280.35C766.673 280.325 762.959 280.191 773.312 280.35C780.465 279.687 731.692 280.383 741.848 279.845C741.841 279.845 741.835 279.845 741.828 279.845C739.727 279.853 737.625 279.86 735.524 279.868ZM429.141 280.066C428.47 279.947 415.563 280.131 418.595 279.846C414.383 279.945 410.17 280.044 405.958 280.144C405.99 280.17 406.022 280.197 406.054 280.223C410.241 280.203 414.428 280.182 418.615 280.161C418.631 280.203 418.647 280.245 418.663 280.287C424.902 280.135 450.939 280.201 450.147 280.35C451.538 280.287 452.929 280.224 454.321 280.161C466.775 280.333 477.49 280.151 491.058 280.318C492.109 280.266 493.159 280.214 494.21 280.161C494.895 280.204 495.579 280.246 496.264 280.288C501.206 280.293 506.148 280.298 511.09 280.304C527.194 280.134 495.903 279.915 492.109 279.939C491.605 279.943 491.683 280.052 488.532 280.069C482.937 280.099 451.617 279.991 441.933 280.063C441.85 279.99 441.766 279.918 441.683 279.846C437.502 279.919 433.322 279.993 429.141 280.066ZM842.603 280.13C843.31 280.203 844.017 280.277 844.724 280.35C856.924 280.277 864.606 280.341 861.478 280.098C861.471 280.098 861.465 280.098 861.459 280.098C855.173 280.108 848.888 280.119 842.603 280.13ZM558.847 1.80784C559.167 1.95415 565 2.00886 572.536 1.90397C572.173 1.86149 571.81 1.81901 571.447 1.77653C567.519 1.90112 562.618 1.68396 550.499 1.71281C550.499 1.78642 550.499 1.86002 550.499 1.93363C553.282 1.8917 556.065 1.84977 558.847 1.80784ZM832.076 280.098C828.358 280.011 817.922 280.274 824.789 280.287C830.039 280.297 834.072 280.144 832.076 280.098ZM1.55747 169.634C1.54209 172.391 1.52671 175.148 1.51133 177.905C1.57395 179.341 1.63657 180.778 1.69919 182.214C1.69919 182.208 1.69919 182.201 1.69919 182.195C1.65195 178.008 1.60471 173.821 1.55747 169.634ZM549.784 280.279C559.134 280.27 568.485 280.261 577.836 280.251C577.929 280.211 578.022 280.17 578.115 280.129C568.748 280.278 564.982 280.117 562.798 280.108C562.807 280.108 562.817 280.108 562.826 280.108C555.813 280.075 549.132 280.051 542.496 280.003C544.925 280.095 547.355 280.187 549.784 280.279ZM517.731 280.021C519.307 280.31 521.364 280.343 535.729 280.141C535.16 280.105 534.592 280.069 534.023 280.034C526.579 280.055 522.237 280.122 523.544 279.971C521.607 279.988 519.669 280.005 517.731 280.021ZM664.16 280.114C662.436 280.022 648.755 280.114 649.498 280.16C649.792 280.179 667.521 280.294 664.16 280.114ZM454.978 1.87156C458.13 1.89261 461.283 1.91367 464.435 1.93473C460.241 1.96604 456.048 1.99735 451.855 2.02866C452.896 1.97629 453.937 1.92392 454.978 1.87156ZM420.371 2.28188C418.124 2.24511 425.43 1.98572 411.994 1.9188C421.772 1.9133 431.55 1.90781 441.328 1.90232C436.743 1.94425 432.158 1.98618 427.572 2.02811C428.372 2.10263 429.172 2.17715 429.972 2.25167C426.772 2.26174 423.572 2.27181 420.371 2.28188ZM409.873 2.09183C415.139 2.28897 387.412 2.30378 384.829 2.27969C384.254 2.27396 381.519 2.1245 380.511 2.09238C384.697 2.09219 388.884 2.09201 393.071 2.09183C391.67 2.04477 390.269 1.99771 388.868 1.95066C393.769 1.93454 398.669 1.91843 403.569 1.90232C401.474 1.94956 399.379 1.9968 397.284 2.04404C401.48 2.05997 405.677 2.0759 409.873 2.09183ZM521.117 2.04404C517.611 2.03909 514.105 2.03415 510.6 2.02921C511.3 2.10281 512.001 2.17642 512.701 2.25002C514.8 2.25002 516.898 2.25002 518.996 2.25002C519.703 2.18136 520.41 2.1127 521.117 2.04404ZM449.686 2.13907C454.79 1.78467 468.698 2.55945 452.443 2.27255C450.805 2.24338 449.203 2.17331 449.686 2.13907ZM374.437 2.23739C363.537 2.49577 365.997 1.9253 376.288 2.09238C376.806 2.10126 375.256 2.21831 374.437 2.23739ZM292.711 2.24563C291.828 2.24371 290.285 2.059 281.857 2.23464C280.465 2.21359 279.074 2.19253 277.683 2.17147C280.939 2.08565 308.792 2.0346 304.944 2.21762C300.68 2.22047 297.122 2.25134 292.711 2.24563ZM319.683 2.92896C323.864 2.92383 328.044 2.9187 332.225 2.91358C330.846 2.85572 329.468 2.79786 328.089 2.74C330.146 2.72425 332.202 2.70851 334.259 2.69276C337.774 2.79255 341.289 2.89234 344.805 2.99213C335.717 3.00806 326.63 3.02399 317.543 3.03992C318.257 3.00293 318.97 2.96594 319.683 2.92896ZM430.83 3.07178C422.787 2.99917 412.931 3.07645 399.867 3.06409C399.861 3.0639 399.854 3.06372 399.848 3.06354C399.196 3.06269 398.041 2.98321 395.944 2.98004C394.156 2.97751 358.875 3.06479 361.626 2.93006C375.277 2.80928 380.377 2.9929 383.653 2.69331C384.318 2.75648 384.983 2.81965 385.649 2.88282C398.775 2.99219 402.521 2.77352 409.893 2.69331C409.864 2.74091 409.835 2.78852 409.806 2.83613C414.729 2.84089 419.651 2.84565 424.574 2.85041C423.88 2.8191 423.186 2.78779 422.492 2.75648C424.233 2.75648 425.975 2.75648 427.717 2.75648C431.959 2.89754 437.338 2.93042 430.83 3.07178ZM300.722 2.85041C296.857 3.2115 259.198 2.96417 241.996 3.03992C251.027 2.82249 265.018 2.97233 274.868 2.97455C293.909 2.97865 280.747 2.84558 283.977 2.78724C285.573 2.75839 296.374 2.9899 300.722 2.85041ZM460.213 3.00861C450.719 2.97944 445.405 3.06258 437.193 2.93006C437.88 2.90369 438.568 2.87732 439.256 2.85096C442.068 2.87509 464.998 2.95125 460.213 3.00861ZM216.788 2.94544C235.123 3.0751 226.079 2.74816 235.614 2.99323C229.339 3.00879 223.063 3.02435 216.788 3.03992C216.788 3.00842 216.788 2.97693 216.788 2.94544ZM811.091 278.739C803.364 278.731 794.734 278.665 790.114 278.801C795.365 278.822 800.615 278.843 805.866 278.865C807.607 278.823 809.349 278.781 811.091 278.739ZM1026.44 260.097C1025.32 261.469 1020.18 266.179 1019.53 266.543C1018.44 267.369 1018.7 267.1 1018.68 267.104C1011.28 272.094 1018.29 267.772 1012.62 271.183C1011.85 272.163 997.14 277.713 990.655 277.434C989.529 277.505 988.418 277.54 987.297 277.541C978.768 277.546 970.798 277.538 967.583 277.541C961.45 277.545 950.065 277.655 939.985 277.661C935.829 277.663 934.378 277.575 930.2 277.577C903.38 277.592 850.58 277.713 826.784 277.657C820.905 277.643 815.298 277.527 812.189 277.537C809.738 277.579 807.286 277.621 804.834 277.664C797.294 277.283 794.772 277.622 786.644 277.657C781.481 277.68 779.066 277.567 778.373 277.567C773.774 277.569 771.506 277.623 767.894 277.632C763.841 277.642 758.017 277.591 756.568 277.6C755.678 277.606 758.519 277.756 742.792 277.753C726.765 277.75 710.942 277.734 694.641 277.727C700.078 278.18 704.76 277.87 711.415 277.854C713.2 277.849 712.068 277.921 713.622 277.918C718.012 277.909 726.415 277.839 730.049 277.856C733.972 277.874 732.631 278.041 737.606 277.98C737.858 277.976 737.062 277.908 738.233 277.896C749.994 277.782 753.844 277.902 768.714 277.905C778.566 277.908 838.4 277.84 840.453 277.885C851.165 278.125 788.116 278.127 780.744 278.108C778.164 278.101 780.869 278.025 778.518 278.011C777.521 278.005 768.558 278.15 759.701 278.162C748.99 278.177 727.464 278.078 717.256 278.081C629.509 278.111 542.977 278.024 455.314 278.022C453.444 278.022 450.983 278.109 444.893 278.109C331.226 278.107 213.418 278.039 98.3027 278.08C84.6074 278.084 70.9737 278.111 57.2969 278.123C45.7706 278.169 34.2197 274.34 24.9679 267.263C22.3956 265.395 19.9845 263.295 17.7736 260.995C22.9923 267.47 36.3746 274.624 37.7859 274.75C38.2507 274.907 41.1368 276.078 46.02 277.14C52.905 278.529 56.0396 278.315 56.6059 278.386C56.9134 278.39 57.1341 278.389 57.2969 278.385C58.0657 278.37 57.5141 278.325 58.9047 278.325C71.4223 278.328 81.1074 278.309 92.5959 278.309C105.574 278.308 112.152 278.431 121.602 278.296C122.672 278.349 123.742 278.401 124.812 278.454C131.873 278.226 173.919 278.252 190.951 278.264C196.325 278.267 195.382 278.36 197.188 278.36C198.341 278.36 197.886 278.239 211.947 278.262C219.024 278.275 220.881 278.363 224.43 278.36C226.359 278.358 226.046 278.271 228.816 278.271C244.84 278.271 257.925 278.299 273.612 278.315C278.023 278.32 278.072 278.393 279.059 278.392C282.693 278.388 289.014 278.265 298.252 278.265C313.458 278.266 343.763 278.266 356.197 278.326C358.024 278.335 359.538 278.422 360.882 278.421C362.917 278.419 363.715 278.328 364.073 278.327C370.878 278.326 366.783 278.411 371.341 278.39C373.798 278.379 376.36 278.275 382.07 278.263C389.61 278.247 388.126 278.371 391.276 278.359C391.609 278.357 391.708 278.271 394.804 278.268C406.545 278.258 423.575 278.238 434.684 278.238C437.876 278.238 440.249 278.296 444.7 278.297C453.668 278.299 504.644 278.262 508.824 278.295C509.265 278.299 504.732 278.426 511.957 278.422C514.055 278.369 516.154 278.316 518.252 278.264C521.761 278.348 525.27 278.432 528.779 278.517C528.653 278.225 549.295 278.18 549.09 278.478C551.349 278.49 553.608 278.503 555.867 278.515C560.571 278.309 563.702 278.385 572.794 278.264C574.211 278.327 575.628 278.39 577.045 278.453C577.402 278.411 577.759 278.369 578.115 278.327C582.967 278.555 590.925 278.326 591.891 278.325C595.607 278.319 598.399 278.378 600.142 278.376C606.652 278.37 620.745 278.29 628.348 278.327C628.705 278.329 628.354 278.426 630.517 278.438C634.419 278.46 634.8 278.317 640.003 278.485C641.054 278.443 642.104 278.401 643.155 278.359C644.27 278.38 645.385 278.402 646.5 278.424C653.081 278.413 659.662 278.402 666.243 278.39C660.257 278.556 667.145 278.648 673.656 278.518C675.859 278.474 673.904 278.373 674.639 278.358C675.647 278.337 705.181 278.389 707.135 278.454C708.532 278.422 709.93 278.39 711.328 278.359C712.035 278.422 712.742 278.485 713.449 278.549C714.22 278.526 714.991 278.504 715.762 278.482C723.448 278.594 743.398 278.338 747.015 278.358C748.947 278.369 747.209 278.639 756.471 278.611C756.793 278.537 757.114 278.463 757.435 278.389C759.556 278.378 761.677 278.368 763.798 278.357C767.777 278.364 773.57 278.492 773.755 278.58C774.999 278.527 776.243 278.474 777.486 278.422C780.825 278.594 798.635 278.533 805.798 278.424C807.893 278.476 809.988 278.528 812.083 278.579C814.898 278.516 817.713 278.453 820.528 278.39C827.049 278.371 820.16 278.476 821.55 278.485C824.49 278.503 839.474 278.326 838.487 278.546C840.531 278.547 842.574 278.548 844.618 278.548C845.669 278.485 846.719 278.422 847.77 278.359C851.278 278.576 857.348 278.5 869.797 278.579C870.841 278.529 871.886 278.479 872.93 278.429C876.78 278.5 880.629 278.571 884.479 278.642C885.269 278.559 886.059 278.477 886.85 278.394C888.524 278.382 890.198 278.37 891.872 278.358C895.273 278.543 901.381 278.343 904.491 278.42C909.027 278.531 905.519 278.664 897.097 278.69C897.727 278.825 922.815 278.763 928.6 278.753C928.218 278.727 927.835 278.7 927.453 278.674C921.537 278.695 915.621 278.716 909.706 278.737C904.749 278.397 920.814 278.488 928.185 278.444C928.859 278.44 932.68 278.311 940.11 278.323C942.987 278.328 954.211 278.516 956.353 278.527C973.654 278.613 960.932 278.344 977.859 278.579C975.158 278.441 980.228 278.497 987.297 278.515C989.509 278.521 991.893 278.385 994.295 278.065C996.165 278.363 1010.35 273.766 1011.05 272.849C1016.53 269.842 1010.8 273.525 1018.4 268.59C1019.27 267.927 1020.11 267.239 1020.93 266.526C1022.57 265.21 1024.14 263.798 1025.62 262.299C1034.58 253.118 1034.95 249.59 1036.91 245.575C1037.57 243.865 1036.88 246.133 1038.47 241.638C1039 239.923 1039.63 238.021 1040.44 233.266C1040.98 229.949 1041.16 227.084 1041.19 224.5C1041.26 215.644 1041.4 210.236 1041.12 199.626C1041.18 197.531 1041.23 195.436 1041.28 193.34C1041.22 191.927 1041.15 190.513 1041.09 189.099C1041.27 178.285 1041.09 182.189 1041.09 178.283C1041.1 167.97 1041.13 146.864 1041.28 145.016C1040.94 136.113 1041.33 125.467 1041.31 121.958C1041.27 119.872 1041.23 117.787 1041.19 115.701C1041.23 113.25 1041.27 110.798 1041.31 108.346C1040.97 109.538 1041.31 96.8402 1041.31 95.6216C1041.32 94.2146 1041.22 74.6855 1041.22 67.4154C1041.22 64.5934 1041.23 60.9569 1041.25 57.5C1041.32 51.947 1040.29 46.9275 1040.14 46.2582C1040.07 44.9798 1036.58 32.5984 1030.25 24.8986C1028.38 22.3619 1022.44 15.2587 1013.68 10.4215C1005.05 5.36993 994.072 3.36739 987.297 3.52704C982.668 3.53559 979.95 3.5558 980.763 3.59471C982.618 3.61841 984.918 3.64031 987.297 3.65843C989.155 3.67125 991.049 3.78266 992.809 3.97142C997.184 4.38424 1010.15 6.44078 1021.7 16.2176C1033.45 25.5817 1041.38 42.7353 1040.98 57.5C1040.96 69.1657 1040.95 79.06 1040.94 84.449C1040.9 122.105 1040.9 161.378 1040.87 199.201C1040.87 201.427 1040.78 201.765 1040.78 203.674C1040.78 206.573 1040.86 213.928 1040.86 216.785C1040.86 219.271 1040.86 221.883 1040.86 224.5C1040.96 233.254 1038.27 241.763 1036.45 245.771C1031.11 257.549 1024.38 264.026 1016.34 269.411C1014.04 271.387 999.764 278.333 988.946 278.011C988.398 278.021 987.848 278.022 987.297 278.015C985.941 277.997 984.585 277.98 983.229 277.962C984.288 277.956 985.686 277.949 987.297 277.941C993.986 278.137 1004.1 275.665 1008.88 273.305C1017.84 269.167 1021.63 265.442 1024.3 263.015C1026.87 261.262 1036.19 248.526 1037.86 241.484C1038.54 239.393 1038.74 238.982 1039.2 237.155C1040.14 233.341 1040.72 228.945 1040.7 224.5C1040.69 217.438 1040.67 210.289 1040.62 204.87C1040.65 208.461 1040.7 186.034 1040.7 184.857C1040.7 182.841 1040.62 180.654 1040.62 176.538C1040.62 168.623 1040.8 169.627 1040.62 159.736C1040.67 157.287 1040.72 154.839 1040.77 152.39C1040.53 152.24 1040.86 121.301 1040.57 112.501C1040.54 112.27 1040.44 152.475 1040.44 155.793C1040.41 175.703 1040.47 205.165 1040.42 224.487C1040.42 224.491 1040.42 224.496 1040.42 224.5C1041.34 230.54 1035.57 248.069 1034.28 248.987C1033.24 250.949 1034.26 249.22 1033.81 250.067C1028.86 258.604 1026.54 259.992 1026.42 260.294C1026.17 260.514 1027.33 259.143 1026.44 260.097ZM409.893 3.22997C415.869 3.23986 421.846 3.24975 427.823 3.25964C427.389 3.31237 426.955 3.3651 426.521 3.41783C423.784 3.39733 421.046 3.37682 418.308 3.35631C416.204 3.38781 414.099 3.4193 411.994 3.45079C411.294 3.37719 410.593 3.30358 409.893 3.22997ZM395.163 3.45079C389.98 3.47734 389.727 3.36614 388.531 3.36071C384.961 3.34423 381.874 3.38919 378.409 3.38762C382.4 3.12347 390.899 3.24453 395.163 3.45079ZM502.213 3.54582C501.045 3.53318 493.243 3.24881 484.37 3.51341C477.731 3.42937 471.093 3.34533 464.454 3.26128C475.733 3.38968 491.339 3.25621 496.863 3.26128C498.961 3.26321 499.361 3.3505 501.037 3.35192C510.698 3.35889 520.091 3.16111 521.078 3.45024C511.942 3.36623 503.704 3.56136 502.213 3.54582ZM443.912 3.4431C442.366 3.38268 440.82 3.32226 439.275 3.26183C444.86 3.26183 450.444 3.26183 456.029 3.26183C454.519 3.32299 453.008 3.38414 451.498 3.4453C448.969 3.44457 446.441 3.44384 443.912 3.4431ZM873.549 3.64305C870.104 3.64232 866.66 3.64158 863.215 3.64085C863.404 3.68489 867.345 3.68472 868.797 3.71446C868.79 3.71446 868.784 3.71446 868.777 3.71446C870.394 3.74806 869.702 3.80476 872.643 3.82981C872.945 3.76756 873.247 3.7053 873.549 3.64305ZM15.172 257.657C12.9074 255.506 2.98137 239.522 3.66637 224.5C3.64479 212.809 3.60515 203.26 3.5333 205.292C3.47499 206.956 3.49604 217.048 3.51139 224.5C3.51441 227.35 3.75675 229.791 3.9448 231.277C3.80027 238.933 13.0874 256.899 15.172 257.657ZM3.72171 165.412C3.56168 164.488 3.53622 197.811 3.56406 201.07C3.58689 200.378 3.63768 199.312 3.64921 198.39C3.70437 193.895 3.67797 172.596 3.72171 165.412ZM1040.53 53.3691C1040.41 50.6663 1040.08 47.9647 1039.54 45.2971C1039.6 46.0171 1039.65 46.7416 1039.67 47.4565C1040.07 49.4081 1040.36 51.3886 1040.53 53.3691ZM981.07 278.011C936.318 278.006 891.567 278.001 846.816 277.996C850.752 277.952 854.688 277.908 858.625 277.864C897.185 277.88 938.308 277.924 975.546 277.857C977.387 277.908 979.229 277.959 981.07 278.011ZM514.822 4.01987C526.289 4.02144 535.865 3.94411 548.34 4.06711C536.452 4.18631 530.567 4.00188 519.016 4.17752C519.009 4.17752 519.003 4.17752 518.996 4.17752C517.605 4.12497 516.214 4.07242 514.822 4.01987ZM770.817 4.05173C767.331 4.12533 763.845 4.19894 760.358 4.27255C764.552 4.27255 768.745 4.27255 772.938 4.27255C772.231 4.19894 771.524 4.12533 770.817 4.05173ZM590.715 277.602C578.721 277.762 548.04 277.472 538.293 277.665C537.663 277.678 543.457 277.759 534.09 277.917C541.166 277.885 546.162 277.852 546.689 277.727C548.791 277.77 550.892 277.812 552.994 277.854C556.48 277.822 559.967 277.79 563.453 277.758C563.075 277.882 563.351 277.875 568.707 277.791C571.149 277.822 573.591 277.853 576.033 277.885C577.068 277.832 578.102 277.78 579.137 277.727C581.251 277.801 583.366 277.874 585.48 277.947C593.721 277.868 588.702 277.726 590.715 277.602ZM632.696 277.632C630.746 277.605 575.141 277.693 600.412 277.94C606.98 277.932 613.548 277.924 620.116 277.916C614.676 277.508 632.575 277.873 634.046 277.882C641.08 277.922 650.044 277.825 655.147 277.83C659.536 277.834 662.143 277.907 665.23 277.905C675.746 277.899 692.356 277.896 694.641 277.727C686.468 277.724 678.164 277.722 669.665 277.726C660.675 277.731 652.773 277.571 635.887 277.79C631.711 277.767 633.2 277.639 632.696 277.632ZM749.86 4.25552C750.28 4.08579 729.058 4.12638 728.923 4.19345C728.881 4.23276 735.792 4.23183 736.779 4.24673C736.786 4.24673 736.792 4.24673 736.798 4.24673C737.21 4.25324 735.122 4.31821 738.37 4.33626C742.2 4.30935 746.03 4.28243 749.86 4.25552ZM92.3163 277.727C90.896 277.68 74.1147 277.664 57.2969 277.666C39.5859 278.161 24.8972 266.896 24.4087 266.334C23.9877 266.017 24.5381 266.505 24.3601 266.396C32.3884 272.849 45.2273 277.941 57.2969 277.782C63.1627 277.802 68.7333 277.822 73.5187 277.825C77.564 277.828 76.355 277.761 76.5841 277.759C76.5938 277.759 76.6034 277.759 76.6131 277.759C78.9086 277.759 89.272 277.924 92.3163 277.727ZM517.307 277.742C520.093 277.769 522.879 277.795 525.665 277.822C526.372 277.769 527.079 277.717 527.786 277.664C527.779 277.664 527.773 277.664 527.766 277.664C524.28 277.69 520.794 277.716 517.307 277.742ZM420.784 277.569C421.462 277.606 422.14 277.643 422.818 277.68C429.832 277.685 436.847 277.69 443.861 277.696C443.155 277.716 442.448 277.737 441.741 277.758C452.347 277.814 456.74 277.684 462.389 277.703C462.383 277.703 462.376 277.703 462.37 277.703C462.978 277.705 463.714 277.782 465.975 277.785C471.161 277.791 486.023 277.819 487.819 277.742C491.62 277.576 461.71 277.655 456.133 277.647C453.613 277.644 450.581 277.576 449.048 277.575C447.368 277.573 445.08 277.664 440.989 277.662C439.792 277.661 426.519 277.553 420.784 277.569ZM296.97 277.68C299.133 277.763 303.649 277.683 305.308 277.696C305.705 277.699 302.622 277.769 306.359 277.79C307.416 277.742 308.473 277.695 309.53 277.647C305.344 277.658 301.157 277.669 296.97 277.68ZM714.203 4.33571C714.813 4.35361 726.206 4.34706 726.754 4.33571C733.58 4.18354 709.981 4.20002 714.203 4.33571ZM426.676 4.50984C431.917 4.73102 369.734 4.51358 363.708 4.52522C364.009 4.38621 378.802 4.52597 371.054 4.33517C378.447 4.4401 398.885 4.38438 403.694 4.41481C406.613 4.43321 407.35 4.55328 407.791 4.55708C409.522 4.57061 424.828 4.43188 426.676 4.50984ZM312.328 4.43074C318.237 4.45711 324.146 4.48348 330.056 4.50984C323.083 4.52559 316.11 4.54134 309.137 4.55708C310.201 4.51497 311.264 4.47286 312.328 4.43074ZM304.896 4.49391C305.085 4.62865 285.027 4.52601 279.755 4.55708C285.698 4.32788 295.613 4.54397 304.896 4.49391ZM638.626 4.68342C647.868 4.77251 651.839 4.3618 640.603 4.5406C640.261 4.54651 638.241 4.6787 638.626 4.68342ZM587.861 277.024C586.286 277.021 566.689 276.888 565.555 276.954C561.968 277.164 574.828 277.08 579.137 277.159C586.089 277.288 575.865 277.394 592.835 277.317C592.141 277.359 591.447 277.401 590.753 277.443C600.685 277.457 597.434 277.165 599.217 277.128C599.763 277.116 605.972 277.141 607.093 277.122C621.089 276.887 589.322 277.026 587.861 277.024ZM867.389 4.71473C885.787 4.83837 877.872 4.65695 896.752 4.66804C897.382 4.57547 869.783 4.63357 867.389 4.71473ZM767.008 277.19C747.981 277.227 732.333 277.106 714.586 277.268C715.741 277.519 771.943 277.255 767.008 277.19ZM4.86041 123.45C4.66737 155.49 4.58538 189.658 4.55503 224.5C3.77644 252.43 29.2221 278 57.2969 277.246C75.474 277.239 93.5227 277.23 111.239 277.229C119.829 277.228 120.653 277.327 123.761 277.317C125.798 277.31 125.442 277.23 128.148 277.229C225.957 277.216 319.61 277.112 413.303 277.159C419.205 277.163 447.916 277.334 454.051 277.075C458.69 276.879 438.064 277.032 434.626 277.03C432.043 277.029 431.933 276.937 430.211 276.936C428.384 276.936 429.894 276.999 427.773 277C418.784 277.005 408.976 276.98 400.849 276.985C321.144 277.037 243.601 277.022 164.316 277.013C154.719 277.012 156.692 276.938 156.209 276.938C156.203 276.938 156.196 276.938 156.19 276.939C125.048 276.934 91.2281 276.994 57.2969 277.027C35.1374 277.401 14.1589 261.875 7.5625 241.466C5.70833 236.011 4.77589 230.264 4.78574 224.5C4.82894 191.928 4.87214 159.357 4.91534 126.785C4.89703 125.673 4.87872 124.561 4.86041 123.45ZM628.493 277.285C623.704 277.006 622.634 277.287 605.454 277.173C604.056 277.221 602.658 277.268 601.26 277.316C610.347 277.306 619.435 277.295 628.522 277.285C628.512 277.285 628.503 277.285 628.493 277.285ZM515.023 277.183C512.119 276.806 473.702 277.073 456.403 277.001C453.232 277.19 478.38 277.105 484.31 277.125C487.271 277.135 503.131 277.329 515.186 277.222C515.132 277.209 515.077 277.196 515.023 277.183ZM491.735 5.06354C494.53 5.05255 497.326 5.04156 500.121 5.03058C493.126 4.98883 486.131 4.94708 479.136 4.90534C490.295 4.93225 501.455 4.95917 512.615 4.98608C510.536 5.06427 508.457 5.14245 506.378 5.22064C501.497 5.16827 496.616 5.1159 491.735 5.06354ZM527.942 5.02344C508.399 5.05288 528.8 4.84358 533.678 4.93665C536.597 4.99245 529.937 5.02027 527.942 5.02344ZM578.773 5.15802C569.658 5.29528 551.24 5.30473 557.787 5.03058C567.637 5.15898 573.986 5.05229 588.268 5.12616C586.183 5.17871 584.097 5.23126 582.012 5.28381C582.002 5.28381 581.992 5.28381 581.983 5.28381C580.913 5.24188 579.843 5.19995 578.773 5.15802ZM519.016 5.18933C506.216 5.03183 543.273 5.08568 531.624 5.18933C531.078 5.19408 519.52 5.19535 519.016 5.18933ZM5.14385 205.292C5.05427 203.75 5.05594 213.594 5.04992 216.869C5.04535 219.307 5.04271 221.863 5.04142 224.5C4.79161 237.114 10.5519 251.233 18.9239 259.958C18.2015 259.133 17.5054 258.287 16.8371 257.42C9.3041 248.224 5.09883 236.394 5.14195 224.5C5.14258 218.097 5.14322 211.695 5.14385 205.292ZM59.7626 276.747C69.907 276.747 80.0513 276.747 90.1956 276.747C91.1407 276.747 95.5752 276.671 92.2778 276.652C81.4394 276.684 70.601 276.716 59.7626 276.747ZM692.53 276.747C684.752 276.697 707.15 276.44 706.142 276.716C701.605 276.726 697.067 276.737 692.53 276.747ZM764.906 276.638C760.028 276.664 755.151 276.69 750.273 276.716C750.266 276.685 750.26 276.653 750.254 276.621C755.138 276.627 760.022 276.632 764.906 276.638ZM5.20702 165.412C5.09862 170.579 5.1153 182.904 5.11309 190.591C5.20622 185.297 5.16043 172.678 5.20702 165.412ZM575.995 276.637C576.625 276.71 545.685 276.692 556.397 276.562C562.929 276.587 569.462 276.612 575.995 276.637ZM513.153 276.527C519.788 276.511 524.929 276.536 523.564 276.652C520.045 276.648 516.526 276.643 513.008 276.638C513.056 276.601 513.104 276.564 513.153 276.527ZM613.466 5.37883C624.649 5.3684 635.831 5.35796 647.013 5.34752C646.599 5.3792 646.184 5.41088 645.77 5.44255C634.989 5.45281 624.208 5.46306 613.428 5.47331C613.441 5.44182 613.454 5.41033 613.466 5.37883ZM5.49156 159.088C5.47087 151.408 5.45018 143.729 5.42949 136.049C5.40825 143.735 5.38701 151.421 5.36577 159.107C5.40788 159.107 5.44999 159.107 5.49211 159.107C5.49192 159.101 5.49174 159.095 5.49156 159.088ZM460.28 5.78916C494.441 5.93688 450.853 6.09304 441.839 5.87595C441.829 5.87613 441.82 5.87632 441.81 5.8765C441.021 5.85731 442.69 5.76453 441.376 5.72709C444.853 5.76902 448.33 5.81095 451.807 5.85288C454.978 5.8007 458.15 5.74851 461.321 5.69633C462.366 5.71684 463.41 5.73734 464.454 5.75785C463.063 5.76829 461.671 5.77872 460.28 5.78916ZM322.411 5.87156C291.436 5.85443 323.13 5.6224 338.462 5.80564C338.351 5.84804 325.265 5.87314 322.411 5.87156ZM403.588 5.82157C408.469 5.80051 413.35 5.77946 418.231 5.7584C418.855 5.78495 419.478 5.8115 420.101 5.83805C416.355 5.86441 412.608 5.89078 408.861 5.91715C407.104 5.88529 405.346 5.85343 403.588 5.82157ZM564.111 6.23135C571.965 6.26051 581.985 5.9653 556.765 6.04294C556.778 6.07461 556.791 6.10629 556.804 6.13797C557.809 6.13291 560.758 6.10319 560.92 6.10556C561.382 6.11348 560.837 6.21926 564.111 6.23135ZM265.054 6.70594C264.172 6.718 263.692 7.05212 254.518 6.70649C251.745 6.72755 248.972 6.7486 246.199 6.76966C245.482 6.69605 244.766 6.62245 244.049 6.54884C254.782 6.60591 255.92 6.45698 256.697 6.45381C260.264 6.43988 257.624 6.51648 259.926 6.51753C265.869 6.52007 279.374 6.46863 273.248 6.68727C271.043 6.76557 265.936 6.69389 265.054 6.70594ZM286.04 6.896C284.738 6.86811 288.932 6.77037 287.949 6.74274C287.088 6.71865 274.153 6.61894 277.654 6.45381C279.778 6.46077 281.902 6.46773 284.026 6.47469C284.745 6.51991 285.465 6.56514 286.185 6.61036C288.241 6.56862 290.298 6.52687 292.354 6.48512C295.82 6.59672 303.195 6.74129 294.436 6.83228C297.656 6.82276 300.876 6.81324 304.096 6.80372C305.763 6.75025 307.431 6.69679 309.099 6.64332C308.225 6.7248 307.351 6.80628 306.477 6.88776C299.664 6.89051 292.852 6.89325 286.04 6.896ZM186.23 6.86469C186.622 6.82258 187.014 6.78046 187.406 6.73835C175.581 6.81664 157.167 6.84641 167.625 6.58235C183.643 6.56038 199.661 6.53841 215.679 6.51643C216.743 6.54811 217.806 6.57979 218.87 6.61146C206.92 6.48942 210.613 7.00875 200.217 6.85975C198.464 6.83449 203.55 6.65288 192.534 6.76911C192.926 6.81141 193.318 6.8537 193.71 6.896C191.217 6.88556 188.723 6.87513 186.23 6.86469ZM84.5776 6.80152C104.824 6.86239 82.5225 7.01607 78.784 6.88831C78.7905 6.88831 78.7969 6.88831 78.8033 6.88831C68.5576 6.53869 90.5886 6.70761 91.9328 6.70539C93.7193 6.7023 97.8799 6.452 107.597 6.8169C99.9241 6.81177 92.251 6.80665 84.5776 6.80152ZM150.678 6.86414C148.977 6.87238 149.919 6.80882 149.184 6.80976C149.177 6.80976 149.171 6.80976 149.164 6.80976C138.327 6.82339 112.55 6.8803 109.757 6.67518C117.779 6.65806 153.675 6.61374 155.845 6.75318C154.122 6.79017 152.4 6.82715 150.678 6.86414ZM226.938 6.71143C233.592 6.84424 218.614 6.86192 214.686 6.80042C213.945 6.7871 220.046 6.57386 226.938 6.71143ZM737.3 7.0542C751.939 6.9743 732.705 6.89457 739.363 6.76966C736.567 6.78028 733.772 6.7909 730.976 6.80152C733.084 6.88575 735.192 6.96997 737.3 7.0542ZM903.401 274.694C899.989 274.679 901.606 274.755 901.31 274.756C899.068 274.754 896.955 274.692 896.094 274.699C880.191 274.824 890.767 274.888 890.928 274.903C891.263 274.978 887.083 275.067 892.875 275.153C896.39 275.126 899.906 275.099 903.421 275.073C905.166 275.115 906.91 275.157 908.655 275.198C915.639 275.109 906.5 275.084 905.464 274.964C905.065 274.918 911.634 274.861 903.401 274.694ZM763.53 7.30688C765.903 7.17435 771.72 7.00718 766.007 6.87403C766.001 6.87403 765.994 6.87403 765.988 6.87403C764.932 6.84967 760.629 6.83627 759.307 6.80207C749.884 6.97862 753.494 7.16107 763.53 7.30688ZM966.456 274.456C972.124 274.487 977.792 274.518 983.46 274.549C983.364 274.629 983.267 274.708 983.171 274.788C980.138 274.766 977.104 274.745 974.071 274.723C973.007 274.76 971.944 274.796 970.88 274.832C974.646 274.923 978.412 275.013 982.178 275.104C983.884 275.092 985.591 275.08 987.297 275.068C990.006 275.049 992.703 274.816 995.362 274.369C993.395 274.642 991.412 274.799 989.427 274.839C999.892 273.795 997.726 274.23 1006.03 271.525C1008.79 270.346 1011.43 268.922 1013.93 267.278C1017.64 265.051 1021.07 262.339 1024.1 259.229C1028.93 253.744 1029.04 253.025 1025.98 256.853C1028.23 254.022 1030.61 250.822 1032.51 246.894C1032.67 246.57 1032.29 247.137 1032.43 246.852C1039.56 230.032 1037.19 226.621 1037.81 224.5C1037.82 223.94 1037.83 223.403 1037.83 222.684C1037.84 220.016 1037.68 209.366 1037.63 209.198C1037.55 208.993 1037.26 231.144 1037.25 196.454C1037.12 207.97 1037.16 220.497 1037.28 224.5C1037.32 226.046 1037.38 226.256 1037.47 224.5C1037.5 223.821 1037.52 222.863 1037.55 221.595C1037.55 222.295 1037.55 223.29 1037.55 224.5C1038.55 232.918 1031.37 250.221 1030.06 250.987C1028.85 252.838 1029.21 252.146 1027.59 254.381C1026.48 255.471 1024.76 260.099 1013.83 267.116C1012.45 268.025 1011.03 268.867 1009.56 269.638C1008.16 270.293 1006.73 270.883 1005.27 271.404C1008.2 270.149 1011 268.617 1013.61 266.841C1004.23 272.825 994.545 274.301 987.297 274.383C986.261 274.396 985.264 274.415 984.309 274.44C977.299 274.415 973.894 274.391 976.905 274.282C974.8 274.282 972.696 274.282 970.591 274.282C969.213 274.34 967.834 274.398 966.456 274.456ZM806.543 7.11737C813.509 7.24058 816.014 6.97477 814.929 6.95972C808.82 6.877 802.917 7.05327 806.543 7.11737ZM916.049 274.835C923.735 274.903 931.421 274.972 939.107 275.04C939.107 274.956 939.107 274.872 939.107 274.788C931.421 274.804 923.735 274.819 916.049 274.835ZM735.16 7.24316C734.453 7.18017 733.746 7.11718 733.039 7.0542C724.62 7.28427 716.261 6.95417 712.101 7.02234C711.199 7.03723 713.021 7.14845 714.743 7.1723C715.814 7.1872 733.668 7.2644 735.16 7.24316ZM384.685 7.21295C387.821 7.17065 390.957 7.12835 394.093 7.08606C393.919 7.15692 393.746 7.22778 393.572 7.29864C392.024 7.31182 390.475 7.325 388.926 7.33819C387.512 7.29644 386.098 7.25469 384.685 7.21295ZM420.371 7.10034C425.966 7.10602 431.56 7.11169 437.154 7.11737C415.816 7.18236 433.328 7.21407 420.371 7.30633C420.371 7.23766 420.371 7.169 420.371 7.10034ZM476.996 7.24371C476.308 7.286 475.62 7.3283 474.933 7.37059C469.338 7.37059 463.744 7.37059 458.15 7.37059C461.688 7.51744 465.225 7.66429 468.763 7.81113C470.813 7.8115 472.863 7.81187 474.913 7.81223C475.607 7.62272 476.301 7.43321 476.996 7.24371ZM752.288 274.378C748.906 274.375 737.141 274.504 737.645 274.551C742.532 274.609 747.419 274.667 752.307 274.725C752.329 274.641 752.352 274.557 752.374 274.472C753.065 274.514 753.756 274.556 754.447 274.598C757.227 274.567 760.006 274.535 762.785 274.504C764.186 274.577 765.587 274.651 766.988 274.724C768.396 274.64 769.803 274.556 771.211 274.472C757.79 274.323 758.252 274.472 755.459 274.471C754.043 274.47 753.147 274.418 752.644 274.392C752.526 274.387 752.406 274.382 752.288 274.378ZM921.36 274.299C905.336 274.278 896.178 274.5 884.585 274.314C892.02 274.709 940.032 274.301 956.96 274.63C958.718 274.567 960.476 274.504 962.233 274.44C953.016 274.497 946.629 274.366 942.134 274.348C938.564 274.333 938.937 274.399 938.664 274.398C938.651 274.398 938.638 274.398 938.625 274.398C930.267 274.371 927.681 274.307 921.36 274.299ZM723.255 7.55296C727.561 7.65306 735.095 7.64305 735.179 7.49693C730.986 7.45464 726.792 7.41234 722.599 7.37005C723.46 7.40746 722.519 7.53584 723.255 7.55296ZM483.502 7.65184C486.863 7.69939 494.802 7.65772 491.378 7.53154C490.763 7.50914 482.855 7.59784 487.493 7.37005C479.789 7.37357 481.592 7.6245 483.502 7.65184ZM1037.4 99.8631C1037.39 97.0354 1037.39 94.2077 1037.38 91.38C1037.32 90.7213 1037.26 90.0626 1037.21 89.4039C1037.27 92.8903 1037.33 96.3767 1037.4 99.8631ZM686.912 7.65403C683.153 7.36549 676.731 7.64629 669.676 7.40905C667.07 7.40721 664.464 7.40538 661.858 7.40355C661.852 7.40355 661.846 7.40355 661.839 7.40355C661.768 7.48229 661.698 7.56102 661.627 7.63975C670.055 7.64451 678.484 7.64927 686.912 7.65403ZM1015.33 265.854C1016.71 264.961 1018.05 264 1019.33 262.975C1021.56 261.066 1023.61 258.964 1025.47 256.704C1024.42 257.892 1023.32 259.03 1022.17 260.112C1020.07 262.222 1017.78 264.147 1015.33 265.854ZM641.104 7.67875C650.219 7.71489 653.647 7.46406 641.991 7.46343C637.077 7.46343 631.554 7.64099 641.104 7.67875ZM578.154 274.471C581.277 274.493 584.401 274.514 587.524 274.535C588.587 274.483 589.651 274.43 590.715 274.377C586.528 274.409 582.341 274.44 578.154 274.471ZM440.277 7.62327C440.644 7.57054 441.01 7.51781 441.376 7.46507C444.162 7.47569 446.948 7.48631 449.734 7.49693C449.034 7.5493 448.333 7.60167 447.633 7.65403C445.181 7.64378 442.729 7.63353 440.277 7.62327ZM599.169 274.504C601.665 274.514 604.162 274.524 606.659 274.534C608.336 274.508 610.013 274.483 611.691 274.457C609.355 274.431 607.019 274.406 604.683 274.381C602.845 274.422 601.007 274.463 599.169 274.504ZM554.702 7.65458C558.209 7.71799 572.219 7.52044 559.599 7.47002C551.558 7.43801 554.176 7.64494 554.702 7.65458ZM535.798 7.71775C549.156 7.83854 539.14 7.22548 523.199 7.62272C539.247 7.56826 535.014 7.71046 535.798 7.71775ZM418.337 8.03415C418.001 8.03383 417.724 7.94568 415.04 7.94242C405.379 7.931 392.626 7.89617 385.716 7.89078C369.104 7.87778 318.221 8.03714 312.27 7.78202C311.031 7.72844 313.883 7.56835 313.379 7.5601C311.9 7.53711 303.389 7.61479 304.963 7.49693C313.314 7.49785 321.666 7.49876 330.017 7.49968C327.967 7.58281 325.917 7.66593 323.867 7.74906C344.676 7.70469 337.788 7.70981 343.773 7.52879C347.295 7.59892 350.817 7.66905 354.338 7.73917C362.005 7.66868 369.672 7.59819 377.339 7.52769C375.601 7.58024 373.862 7.63279 372.124 7.68534C383.675 7.78267 380.466 7.71885 386.786 7.59141C386.799 7.64396 386.812 7.69651 386.825 7.74906C397.977 7.62098 400.149 7.77847 402.586 7.78037C407.584 7.78347 413.954 7.16171 433.019 7.78037C441.057 7.48283 440.874 8.08814 445.599 7.78037C459.204 8.11542 433.329 7.99416 421.085 7.98306C421.078 7.98306 421.072 7.98306 421.065 7.98306C420.141 7.98211 421.608 8.03853 418.337 8.03415ZM488.226 7.72599C479.989 7.99912 512.529 8.02468 501.76 7.63041C500.157 7.6176 498.553 7.60478 496.95 7.59196C494.035 7.63664 491.121 7.68131 488.207 7.72599C488.213 7.72599 488.219 7.72599 488.226 7.72599ZM793.963 7.90726C824.102 7.79503 806.966 7.63791 796.758 7.79136C794.722 7.82179 793.606 7.86352 793.963 7.90726ZM898.466 274.089C898.026 274.122 897.585 274.154 897.145 274.187C907.252 274.157 926.796 274.283 926.527 274.062C917.174 274.071 907.82 274.08 898.466 274.089ZM978.419 273.944C976.248 273.931 967.381 273.9 968.451 273.982C972.294 274.041 976.137 274.1 979.98 274.158C981.77 274.121 983.56 274.085 985.35 274.048C982.85 274.036 979.006 273.948 978.419 273.944Z" fill="#C35E26"/>
</svg>
