<svg preserveAspectRatio="none" width="100%" height="100%" overflow="visible" style="display: block;" viewBox="0 0 776 946" fill="none" xmlns="http://www.w3.org/2000/svg">
<g id="Vector">
<path d="M17.3408 7.58534H757.575V941.666H268.153C268.153 941.666 255.499 941.666 225.673 941.666C195.847 941.666 185.905 941.666 185.905 941.666H151.559C151.559 941.666 140.261 941.666 109.531 941.666C78.801 941.666 65.2436 941.666 65.2436 941.666H17.3408L17.3408 7.58534Z" fill="#E8981B"/>
<path d="M60.6927 7.58538L105.128 7.58533C105.128 7.58533 99.6906 30.3414 82.388 30.3414C65.0855 30.3413 60.6927 7.58538 60.6927 7.58538Z" fill="#BBA264"/>
<path d="M721.81 941.665L677.374 941.666C677.374 941.666 682.812 918.909 700.115 918.91C717.417 918.91 721.81 941.665 721.81 941.665Z" fill="#BBA264"/>
<path d="M757.575 99.693L757.575 144.121C757.575 144.121 734.816 138.684 734.816 121.385C734.816 104.085 757.575 99.693 757.575 99.693Z" fill="#BBA264"/>
<path d="M17.3408 844.14L17.3408 799.711C17.3408 799.711 40.1006 805.148 40.1006 822.448C40.1005 839.748 17.3408 844.14 17.3408 844.14Z" fill="#BBA264"/>
<path d="M757.575 39.0103L757.575 83.4387C757.575 83.4387 734.816 78.0017 734.816 60.702C734.816 43.4024 757.575 39.0103 757.575 39.0103Z" fill="#BBA264"/>
<path d="M17.3408 904.822L17.3408 860.394C17.3408 860.394 40.1006 865.831 40.1006 883.131C40.1005 900.43 17.3408 904.822 17.3408 904.822Z" fill="#BBA264"/>
<path d="M303.464 7.58538L347.899 7.58533C347.899 7.58533 342.462 30.3414 325.159 30.3414C307.856 30.3413 303.464 7.58538 303.464 7.58538Z" fill="#BBA264"/>
<path d="M479.039 941.665L434.603 941.666C434.603 941.666 440.041 918.909 457.344 918.91C474.646 918.91 479.039 941.665 479.039 941.665Z" fill="#BBA264"/>
<path d="M757.575 342.424L757.575 386.852C757.575 386.852 734.816 381.415 734.816 364.116C734.816 346.816 757.575 342.424 757.575 342.424Z" fill="#BBA264"/>
<path d="M17.3408 601.409L17.3408 556.981C17.3408 556.981 40.1006 562.418 40.1006 579.717C40.1005 597.017 17.3408 601.409 17.3408 601.409Z" fill="#BBA264"/>
<path d="M667.62 7.58538L712.056 7.58533C712.056 7.58533 706.618 30.3414 689.315 30.3414C672.013 30.3413 667.62 7.58538 667.62 7.58538Z" fill="#BBA264"/>
<path d="M114.883 941.665L70.4469 941.666C70.4469 941.666 75.8849 918.909 93.1874 918.91C110.49 918.91 114.883 941.665 114.883 941.665Z" fill="#BBA264"/>
<path d="M757.575 706.52L757.575 750.948C757.575 750.948 734.816 745.511 734.816 728.212C734.816 710.912 757.575 706.52 757.575 706.52Z" fill="#BBA264"/>
<path d="M17.3408 237.313L17.3408 192.884C17.3408 192.884 40.1006 198.321 40.1006 215.621C40.1005 232.921 17.3408 237.313 17.3408 237.313Z" fill="#BBA264"/>
<path d="M757.575 827.885L757.575 872.314C757.575 872.314 734.816 866.877 734.816 849.577C734.816 832.278 757.575 827.885 757.575 827.885Z" fill="#BBA264"/>
<path d="M17.3408 115.947L17.3408 71.5189C17.3408 71.5189 40.1006 76.9559 40.1006 94.2556C40.1005 111.555 17.3408 115.947 17.3408 115.947Z" fill="#BBA264"/>
<path d="M182.078 7.58538L226.514 7.58533C226.514 7.58533 221.076 30.3414 203.774 30.3414C186.471 30.3413 182.078 7.58538 182.078 7.58538Z" fill="#BBA264"/>
<path d="M600.425 941.665L555.989 941.666C555.989 941.666 561.427 918.909 578.729 918.91C596.032 918.91 600.425 941.665 600.425 941.665Z" fill="#BBA264"/>
<path d="M757.575 221.058L757.575 265.487C757.575 265.487 734.816 260.05 734.816 242.75C734.816 225.45 757.575 221.058 757.575 221.058Z" fill="#BBA264"/>
<path d="M17.3408 722.774L17.3408 678.346C17.3408 678.346 40.1006 683.783 40.1006 701.083C40.1005 718.382 17.3408 722.774 17.3408 722.774Z" fill="#BBA264"/>
<path d="M546.235 7.58538L590.67 7.58533C590.67 7.58533 585.232 30.3414 567.93 30.3414C550.627 30.3413 546.235 7.58538 546.235 7.58538Z" fill="#BBA264"/>
<path d="M236.268 941.665L191.832 941.666C191.832 941.666 197.27 918.909 214.573 918.91C231.875 918.91 236.268 941.665 236.268 941.665Z" fill="#BBA264"/>
<path d="M757.575 585.155L757.575 629.583C757.575 629.583 734.816 624.146 734.816 606.846C734.816 589.547 757.575 585.155 757.575 585.155Z" fill="#BBA264"/>
<path d="M17.3408 358.678L17.3408 314.25C17.3408 314.25 40.1006 319.687 40.1006 336.986C40.1005 354.286 17.3408 358.678 17.3408 358.678Z" fill="#BBA264"/>
<path d="M424.849 7.58538L469.285 7.58533C469.285 7.58533 463.847 30.3414 446.544 30.3414C429.242 30.3413 424.849 7.58538 424.849 7.58538Z" fill="#BBA264"/>
<path d="M357.654 941.665L313.218 941.666C313.218 941.666 318.656 918.909 335.958 918.91C353.261 918.91 357.654 941.665 357.654 941.665Z" fill="#BBA264"/>
<path d="M757.575 463.789L757.575 508.218C757.575 508.218 734.816 502.781 734.816 485.481C734.816 468.181 757.575 463.789 757.575 463.789Z" fill="#BBA264"/>
<path d="M17.3408 480.044L17.3408 435.615C17.3408 435.615 40.1006 441.052 40.1006 458.352C40.1005 475.651 17.3408 480.044 17.3408 480.044Z" fill="#BBA264"/>
<path d="M121.385 7.58538L165.821 7.58533C165.821 7.58533 160.383 30.3414 143.081 30.3414C125.778 30.3413 121.385 7.58538 121.385 7.58538Z" fill="#BBA264"/>
<path d="M661.117 941.665L616.682 941.666C616.682 941.666 622.12 918.909 639.422 918.91C656.725 918.91 661.117 941.665 661.117 941.665Z" fill="#BBA264"/>
<path d="M757.575 160.376L757.575 204.804C757.575 204.804 734.816 199.367 734.816 182.067C734.816 164.768 757.575 160.376 757.575 160.376Z" fill="#BBA264"/>
<path d="M17.3408 783.457L17.3408 739.029C17.3408 739.029 40.1006 744.466 40.1006 761.765C40.1005 779.065 17.3408 783.457 17.3408 783.457Z" fill="#BBA264"/>
<path d="M364.156 7.58538L408.592 7.58533C408.592 7.58533 403.154 30.3414 385.852 30.3414C368.549 30.3413 364.156 7.58538 364.156 7.58538Z" fill="#BBA264"/>
<path d="M418.346 941.665L373.911 941.666C373.911 941.666 379.349 918.909 396.651 918.91C413.954 918.91 418.346 941.665 418.346 941.665Z" fill="#BBA264"/>
<path d="M757.575 403.107L757.575 447.535C757.575 447.535 734.816 442.098 734.816 424.798C734.816 407.499 757.575 403.107 757.575 403.107Z" fill="#BBA264"/>
<path d="M17.3408 540.726L17.3408 496.298C17.3408 496.298 40.1006 501.735 40.1006 519.035C40.1005 536.334 17.3408 540.726 17.3408 540.726Z" fill="#BBA264"/>
<path d="M54.1899 941.665L9.75419 941.666C9.75419 941.666 15.1921 918.909 32.4946 918.91C49.7972 918.91 54.1899 941.665 54.1899 941.665Z" fill="#BBA264"/>
<path d="M757.575 767.203L757.575 811.631C757.575 811.631 734.816 806.194 734.816 788.894C734.816 771.595 757.575 767.203 757.575 767.203Z" fill="#BBA264"/>
<path d="M17.3408 176.63L17.3408 132.202C17.3408 132.202 40.1006 137.639 40.1006 154.938C40.1005 172.238 17.3408 176.63 17.3408 176.63Z" fill="#BBA264"/>
<path d="M757.575 891.819L757.575 936.247C757.575 936.247 734.816 930.81 734.816 913.511C734.816 896.211 757.575 891.819 757.575 891.819Z" fill="#BBA264"/>
<path d="M17.3408 48.7629L17.3408 4.33448C17.3408 4.33448 40.1006 9.77151 40.1006 27.0712C40.1005 44.3708 17.3408 48.7629 17.3408 48.7629Z" fill="#BBA264"/>
<path d="M242.771 7.58538L287.207 7.58533C287.207 7.58533 281.769 30.3414 264.466 30.3414C247.164 30.3413 242.771 7.58538 242.771 7.58538Z" fill="#BBA264"/>
<path d="M539.732 941.665L495.296 941.666C495.296 941.666 500.734 918.909 518.037 918.91C535.339 918.91 539.732 941.665 539.732 941.665Z" fill="#BBA264"/>
<path d="M757.575 281.741L757.575 326.17C757.575 326.17 734.816 320.732 734.816 303.433C734.816 286.133 757.575 281.741 757.575 281.741Z" fill="#BBA264"/>
<path d="M17.3408 662.092L17.3408 617.663C17.3408 617.663 40.1006 623.1 40.1006 640.4C40.1005 657.7 17.3408 662.092 17.3408 662.092Z" fill="#BBA264"/>
<path d="M606.927 7.58538L651.363 7.58533C651.363 7.58533 645.925 30.3414 628.623 30.3414C611.32 30.3413 606.927 7.58538 606.927 7.58538Z" fill="#BBA264"/>
<path d="M175.575 941.665L131.14 941.666C131.14 941.666 136.578 918.909 153.88 918.91C171.183 918.91 175.575 941.665 175.575 941.665Z" fill="#BBA264"/>
<path d="M757.575 645.837L757.575 690.266C757.575 690.266 734.816 684.829 734.816 667.529C734.816 650.229 757.575 645.837 757.575 645.837Z" fill="#BBA264"/>
<path d="M17.3408 297.995L17.3408 253.567C17.3408 253.567 40.1006 259.004 40.1006 276.304C40.1005 293.603 17.3408 297.995 17.3408 297.995Z" fill="#BBA264"/>
<path d="M485.542 7.58538L529.978 7.58533C529.978 7.58533 524.54 30.3414 507.237 30.3414C489.935 30.3413 485.542 7.58538 485.542 7.58538Z" fill="#BBA264"/>
<path d="M296.961 941.665L252.525 941.666C252.525 941.666 257.963 918.909 275.266 918.91C292.568 918.91 296.961 941.665 296.961 941.665Z" fill="#BBA264"/>
<path d="M757.575 524.472L757.575 568.9C757.575 568.9 734.816 563.463 734.816 546.164C734.816 528.864 757.575 524.472 757.575 524.472Z" fill="#BBA264"/>
<path d="M17.3408 419.361L17.3408 374.932C17.3408 374.932 40.1006 380.369 40.1006 397.669C40.1005 414.969 17.3408 419.361 17.3408 419.361Z" fill="#BBA264"/>
<path d="M63.9441 7.58538L108.38 7.58533C108.38 7.58533 102.942 30.3414 85.6394 30.3414C68.3369 30.3413 63.9441 7.58538 63.9441 7.58538Z" fill="var(--fill-0, #FFDD89)"/>
<path d="M712.056 941.665L667.62 941.666C667.62 941.666 673.058 918.909 690.361 918.91C707.663 918.91 712.056 941.665 712.056 941.665Z" fill="var(--fill-0, #FFDD89)"/>
<path d="M757.575 109.446L757.575 153.874C757.575 153.874 734.816 148.437 734.816 131.137C734.816 113.838 757.575 109.446 757.575 109.446Z" fill="var(--fill-0, #FFDD89)"/>
<path d="M17.3408 839.805L17.3408 795.377C17.3408 795.377 40.1006 800.814 40.1006 818.114C40.1005 835.413 17.3408 839.805 17.3408 839.805Z" fill="var(--fill-0, #FFDD89)"/>
<path d="M757.575 48.7629L757.575 93.1913C757.575 93.1913 734.816 87.7543 734.816 70.4546C734.816 53.1549 757.575 48.7629 757.575 48.7629Z" fill="var(--fill-0, #FFDD89)"/>
<path d="M17.3408 900.488L17.3408 856.06C17.3408 856.06 40.1006 861.497 40.1006 878.796C40.1005 896.096 17.3408 900.488 17.3408 900.488Z" fill="var(--fill-0, #FFDD89)"/>
<path d="M306.715 7.58538L351.151 7.58533C351.151 7.58533 345.713 30.3414 328.41 30.3414C311.108 30.3413 306.715 7.58538 306.715 7.58538Z" fill="var(--fill-0, #FFDD89)"/>
<path d="M469.285 941.665L424.849 941.666C424.849 941.666 430.287 918.909 447.59 918.91C464.892 918.91 469.285 941.665 469.285 941.665Z" fill="var(--fill-0, #FFDD89)"/>
<path d="M757.575 352.176L757.575 396.605C757.575 396.605 734.816 391.168 734.816 373.868C734.816 356.568 757.575 352.176 757.575 352.176Z" fill="var(--fill-0, #FFDD89)"/>
<path d="M17.3408 597.074L17.3408 552.646C17.3408 552.646 40.1006 558.083 40.1006 575.383C40.1005 592.682 17.3408 597.074 17.3408 597.074Z" fill="var(--fill-0, #FFDD89)"/>
<path d="M670.872 7.58538L715.307 7.58533C715.307 7.58533 709.869 30.3414 692.567 30.3414C675.264 30.3413 670.872 7.58538 670.872 7.58538Z" fill="var(--fill-0, #FFDD89)"/>
<path d="M105.128 941.665L60.6927 941.666C60.6927 941.666 66.1307 918.909 83.4332 918.91C100.736 918.91 105.128 941.665 105.128 941.665Z" fill="var(--fill-0, #FFDD89)"/>
<path d="M757.575 716.273L757.575 760.701C757.575 760.701 734.816 755.264 734.816 737.964C734.816 720.665 757.575 716.273 757.575 716.273Z" fill="var(--fill-0, #FFDD89)"/>
<path d="M17.3408 232.978L17.3408 188.55C17.3408 188.55 40.1006 193.987 40.1006 211.287C40.1005 228.586 17.3408 232.978 17.3408 232.978Z" fill="var(--fill-0, #FFDD89)"/>
<path d="M757.575 837.638L757.575 882.066C757.575 882.066 734.816 876.629 734.816 859.33C734.816 842.03 757.575 837.638 757.575 837.638Z" fill="var(--fill-0, #FFDD89)"/>
<path d="M17.3408 111.613L17.3408 67.1844C17.3408 67.1844 40.1006 72.6215 40.1006 89.9211C40.1005 107.221 17.3408 111.613 17.3408 111.613Z" fill="var(--fill-0, #FFDD89)"/>
<path d="M185.33 7.58538L229.765 7.58533C229.765 7.58533 224.327 30.3414 207.025 30.3414C189.722 30.3413 185.33 7.58538 185.33 7.58538Z" fill="var(--fill-0, #FFDD89)"/>
<path d="M590.67 941.665L546.235 941.666C546.235 941.666 551.673 918.909 568.975 918.91C586.278 918.91 590.67 941.665 590.67 941.665Z" fill="var(--fill-0, #FFDD89)"/>
<path d="M757.575 230.811L757.575 275.239C757.575 275.239 734.816 269.802 734.816 252.503C734.816 235.203 757.575 230.811 757.575 230.811Z" fill="var(--fill-0, #FFDD89)"/>
<path d="M17.3408 718.44L17.3408 674.011C17.3408 674.011 40.1006 679.449 40.1006 696.748C40.1005 714.048 17.3408 718.44 17.3408 718.44Z" fill="var(--fill-0, #FFDD89)"/>
<path d="M549.486 7.58538L593.922 7.58533C593.922 7.58533 588.484 30.3414 571.181 30.3414C553.879 30.3413 549.486 7.58538 549.486 7.58538Z" fill="var(--fill-0, #FFDD89)"/>
<path d="M226.514 941.665L182.078 941.666C182.078 941.666 187.516 918.909 204.819 918.91C222.121 918.91 226.514 941.665 226.514 941.665Z" fill="var(--fill-0, #FFDD89)"/>
<path d="M757.575 594.907L757.575 639.336C757.575 639.336 734.816 633.899 734.816 616.599C734.816 599.299 757.575 594.907 757.575 594.907Z" fill="var(--fill-0, #FFDD89)"/>
<path d="M17.3408 354.344L17.3408 309.915C17.3408 309.915 40.1006 315.352 40.1006 332.652C40.1005 349.952 17.3408 354.344 17.3408 354.344Z" fill="var(--fill-0, #FFDD89)"/>
<path d="M428.101 7.58538L472.536 7.58533C472.536 7.58533 467.098 30.3414 449.796 30.3414C432.493 30.3413 428.101 7.58538 428.101 7.58538Z" fill="var(--fill-0, #FFDD89)"/>
<path d="M347.899 941.665L303.464 941.666C303.464 941.666 308.902 918.909 326.204 918.91C343.507 918.91 347.899 941.665 347.899 941.665Z" fill="var(--fill-0, #FFDD89)"/>
<path d="M757.575 473.542L757.575 517.97C757.575 517.97 734.816 512.533 734.816 495.234C734.816 477.934 757.575 473.542 757.575 473.542Z" fill="var(--fill-0, #FFDD89)"/>
<path d="M17.3408 475.709L17.3408 431.281C17.3408 431.281 40.1006 436.718 40.1006 454.017C40.1005 471.317 17.3408 475.709 17.3408 475.709Z" fill="var(--fill-0, #FFDD89)"/>
<path d="M124.637 7.58538L169.073 7.58533C169.073 7.58533 163.635 30.3414 146.332 30.3414C129.03 30.3413 124.637 7.58538 124.637 7.58538Z" fill="var(--fill-0, #FFDD89)"/>
<path d="M651.363 941.665L606.927 941.666C606.927 941.666 612.365 918.909 629.668 918.91C646.97 918.91 651.363 941.665 651.363 941.665Z" fill="var(--fill-0, #FFDD89)"/>
<path d="M757.575 170.128L757.575 214.557C757.575 214.557 734.816 209.12 734.816 191.82C734.816 174.52 757.575 170.128 757.575 170.128Z" fill="var(--fill-0, #FFDD89)"/>
<path d="M17.3408 779.123L17.3408 734.694C17.3408 734.694 40.1006 740.131 40.1006 757.431C40.1005 774.731 17.3408 779.123 17.3408 779.123Z" fill="var(--fill-0, #FFDD89)"/>
<path d="M367.408 7.58538L411.844 7.58533C411.844 7.58533 406.406 30.3414 389.103 30.3414C371.801 30.3413 367.408 7.58538 367.408 7.58538Z" fill="var(--fill-0, #FFDD89)"/>
<path d="M408.592 941.665L364.156 941.666C364.156 941.666 369.594 918.909 386.897 918.91C404.199 918.91 408.592 941.665 408.592 941.665Z" fill="var(--fill-0, #FFDD89)"/>
<path d="M757.575 412.859L757.575 457.288C757.575 457.288 734.816 451.85 734.816 434.551C734.816 417.251 757.575 412.859 757.575 412.859Z" fill="var(--fill-0, #FFDD89)"/>
<path d="M17.3408 536.392L17.3408 491.963C17.3408 491.963 40.1006 497.4 40.1006 514.7C40.1005 532 17.3408 536.392 17.3408 536.392Z" fill="var(--fill-0, #FFDD89)"/>
<path d="M731.564 7.58538L776 7.58533C776 7.58533 770.562 30.3414 753.26 30.3414C735.957 30.3413 731.564 7.58538 731.564 7.58538Z" fill="var(--fill-0, #FFDD89)"/>
<path d="M44.4358 941.665L0 941.666C0 941.666 5.43793 918.909 22.7405 918.91C40.043 918.91 44.4358 941.665 44.4358 941.665Z" fill="var(--fill-0, #FFDD89)"/>
<path d="M757.575 776.955L757.575 821.384C757.575 821.384 734.816 815.947 734.816 798.647C734.816 781.347 757.575 776.955 757.575 776.955Z" fill="var(--fill-0, #FFDD89)"/>
<path d="M17.3408 172.296L17.3408 127.867C17.3408 127.867 40.1006 133.304 40.1006 150.604C40.1005 167.903 17.3408 172.296 17.3408 172.296Z" fill="var(--fill-0, #FFDD89)"/>
<path d="M757.575 901.572L757.575 946C757.575 946 734.816 940.563 734.816 923.263C734.816 905.964 757.575 901.572 757.575 901.572Z" fill="var(--fill-0, #FFDD89)"/>
<path d="M17.3408 44.4284L17.3408 0C17.3408 0 40.1006 5.43704 40.1006 22.7367C40.1005 40.0364 17.3408 44.4284 17.3408 44.4284Z" fill="var(--fill-0, #FFDD89)"/>
<path d="M246.022 7.58538L290.458 7.58533C290.458 7.58533 285.02 30.3414 267.718 30.3414C250.415 30.3413 246.022 7.58538 246.022 7.58538Z" fill="var(--fill-0, #FFDD89)"/>
<path d="M529.978 941.665L485.542 941.666C485.542 941.666 490.98 918.909 508.282 918.91C525.585 918.91 529.978 941.665 529.978 941.665Z" fill="var(--fill-0, #FFDD89)"/>
<path d="M757.575 291.494L757.575 335.922C757.575 335.922 734.816 330.485 734.816 313.185C734.816 295.886 757.575 291.494 757.575 291.494Z" fill="var(--fill-0, #FFDD89)"/>
<path d="M17.3408 657.757L17.3408 613.329C17.3408 613.329 40.1006 618.766 40.1006 636.065C40.1005 653.365 17.3408 657.757 17.3408 657.757Z" fill="var(--fill-0, #FFDD89)"/>
<path d="M610.179 7.58538L654.615 7.58533C654.615 7.58533 649.177 30.3414 631.874 30.3414C614.572 30.3413 610.179 7.58538 610.179 7.58538Z" fill="var(--fill-0, #FFDD89)"/>
<path d="M165.821 941.665L121.385 941.666C121.385 941.666 126.823 918.909 144.126 918.91C161.428 918.91 165.821 941.665 165.821 941.665Z" fill="var(--fill-0, #FFDD89)"/>
<path d="M757.575 655.59L757.575 700.018C757.575 700.018 734.816 694.581 734.816 677.282C734.816 659.982 757.575 655.59 757.575 655.59Z" fill="var(--fill-0, #FFDD89)"/>
<path d="M17.3408 293.661L17.3408 249.233C17.3408 249.233 40.1006 254.67 40.1006 271.969C40.1005 289.269 17.3408 293.661 17.3408 293.661Z" fill="var(--fill-0, #FFDD89)"/>
<path d="M488.793 7.58538L533.229 7.58533C533.229 7.58533 527.791 30.3414 510.489 30.3414C493.186 30.3413 488.793 7.58538 488.793 7.58538Z" fill="var(--fill-0, #FFDD89)"/>
<path d="M287.207 941.665L242.771 941.666C242.771 941.666 248.209 918.909 265.511 918.91C282.814 918.91 287.207 941.665 287.207 941.665Z" fill="var(--fill-0, #FFDD89)"/>
<path d="M757.575 534.225L757.575 578.653C757.575 578.653 734.816 573.216 734.816 555.916C734.816 538.617 757.575 534.225 757.575 534.225Z" fill="var(--fill-0, #FFDD89)"/>
<path d="M17.3408 415.026L17.3408 370.598C17.3408 370.598 40.1006 376.035 40.1006 393.335C40.1005 410.634 17.3408 415.026 17.3408 415.026Z" fill="var(--fill-0, #FFDD89)"/>
</g>
</svg>
