<svg preserveAspectRatio="none" width="100%" height="100%" overflow="visible" style="display: block;" viewBox="0 0 49.3333 63.4845" fill="none" xmlns="http://www.w3.org/2000/svg">
<path id="Vector" d="M24.6667 13.2417V18.7609C24.6667 20.1484 26.3317 20.8267 27.2875 19.8401L35.89 11.2376C36.5067 10.6209 36.5067 9.66507 35.89 9.04841L27.2875 0.445907C26.3317 -0.509927 24.6667 0.168407 24.6667 1.55591V7.07507C11.0383 7.07507 0 18.1134 0 31.7417C0 34.9484 0.616667 38.0317 1.7575 40.8376C2.59 42.9034 5.24167 43.4584 6.81417 41.8859C7.64667 41.0534 7.98583 39.7892 7.52333 38.6792C6.62917 36.5517 6.16667 34.1776 6.16667 31.7417C6.16667 21.5359 14.4608 13.2417 24.6667 13.2417ZM42.5192 21.5976C41.6867 22.4301 41.3475 23.7251 41.81 24.8042C42.6733 26.9626 43.1667 29.3059 43.1667 31.7417C43.1667 41.9476 34.8725 50.2417 24.6667 50.2417V44.7226C24.6667 43.3351 23.0017 42.6567 22.0458 43.6434L13.4433 52.2459C12.8267 52.8626 12.8267 53.8184 13.4433 54.4351L22.0458 63.0376C23.0017 63.9934 24.6667 63.3151 24.6667 61.9584V56.4084C38.295 56.4084 49.3333 45.3701 49.3333 31.7417C49.3333 28.5351 48.7167 25.4517 47.5758 22.6459C46.7433 20.5801 44.0917 20.0251 42.5192 21.5976Z" fill="var(--fill-0, #BB4C18)"/>
</svg>
